<svg xmlns="http://www.w3.org/2000/svg" viewBox="0 0 1038 300"><defs><style>.a{fill:#fff;}.b{fill:#f1f0ef;}.c{fill:#a3a2a2;}</style></defs><title>Global_5Patterns</title><path class="a" d="M0 0h1038v300h-1038v-300z"/><path class="b" d="M828 30h180v240h-180v-240zM628.5 30h180v240h-180v-240z"/><path class="c" d="M808.5 31l-7.76 3.88-9.66-4.88h-2.24l10.78 5.39-13.88 6.94-13.88-6.94 10.78-5.39h-2.24l-9.66 4.83-9.67-4.83h-2.23l10.78 5.39-13.88 6.94-13.88-6.94 10.78-5.39h-2.24l-9.66 4.83-9.66-4.83h-2.24l10.78 5.39-13.88 6.94-13.88-6.94 10.78-5.39h-2.24l-9.66 4.83-9.67-4.83h-2.23l10.78 5.39-13.88 6.94-13.88-6.94 10.78-5.39h-2.24l-9.66 4.83-9.66-4.83h-2.24l10.78 5.39-13.88 6.94-13.88-6.94 10.78-5.39h-2.24l-9.66 4.83-9.67-4.83h-2.23l10.78 5.39-13.88 6.94-7.24-3.62v1.12l6.12 3.06-5.62 2.8-.51.24v1.07l1-.44 6.28-3.14 13.88 6.94-13.88 6.94-6.28-3.14c-.32-.16-.64-.3-1-.44v1.1l.51.27 5.61 2.8-6.11 3.11v1.12l7.24-3.62 13.88 6.94-13.88 6.94-7.24-3.62v1.12l6.12 3.06-5.62 2.75-.51.24v1.07l1-.44 6.28-3.14 13.88 6.94-13.88 6.94-6.28-3.14c-.32-.16-.64-.3-1-.44v1.1l.51.27 5.61 2.8-6.11 3.11v1.12l7.24-3.62 13.88 6.94-13.88 6.94-7.24-3.62v1.12l6.12 3.06-5.61 2.8-.51.24v1l1-.44 6.28-3.14 13.88 6.94-13.88 6.94-6.28-3.14c-.32-.16-.64-.3-1-.44v1.1l.51.24 5.61 2.8-6.12 3.16v1.12l7.24-3.62 13.88 6.94-13.88 6.94-7.24-3.62v1.12l6.12 3.06-5.61 2.8-.51.24v1l1-.44 6.28-3.14 13.88 6.94-13.88 6.94-6.28-3.14c-.32-.16-.64-.3-1-.44v1.1l.51.24 5.61 2.8-6.12 3.16v1.12l7.24-3.62 13.88 6.94-13.88 6.94-7.24-3.62v1.12l6.12 3.06-5.61 2.8-.51.24v1l1-.44 6.28-3.14 13.88 6.94-13.88 6.94-6.28-3.14c-.32-.16-.64-.3-1-.44v1.1l.51.24 5.61 2.8-6.12 3.16v1.12l7.24-3.62 13.88 6.94-13.88 6.94-7.24-3.62v1.12l6.12 3.06-5.61 2.8-.51.24v1l1-.44 6.28-3.14 13.88 6.94-13.88 6.94-6.28-3.14c-.32-.16-.64-.3-1-.44v1.1l.51.24 5.61 2.8-6.12 3.16v1.12l7.24-3.62 13.88 6.94-13.88 6.94-7.24-3.62v1.12l6.12 3.06-5.61 2.8-.51.24v1l1-.44 6.28-3.14 13.88 6.94-13.88 6.94-6.28-3.14c-.32-.16-.64-.3-1-.44v1.1l.51.24 5.61 2.8-6.12 3.16v1.12l7.24-3.62 13.88 6.94-13.88 6.94-7.24-3.62v1.12l6.12 3.06-5.61 2.8-.51.24v1l1-.44 6.28-3.14 13.88 6.94-13.88 6.94-6.28-3.14c-.32-.16-.64-.3-1-.44v1.1l.51.24 5.61 2.8-4.22 2.16h2.24l3.1-1.55 3.1 1.55h2.23l-4.21-2.11 13.88-6.89 13.88 6.94-4.22 2.06h2.24l3.1-1.55 3.1 1.55h2.24l-4.22-2.11 5.61-2.8a18.54 18.54 0 0 1 16.54 0l5.61 2.8-4.22 2.11h2.24l3.1-1.55 3.1 1.55h2.23l-4.21-2.11 13.88-6.89 13.88 6.94-4.22 2.06h2.24l3.1-1.55 3.1 1.55h2.24l-4.22-2.11 5.61-2.8a18.54 18.54 0 0 1 16.54 0l5.61 2.8-4.22 2.11h2.24l3.1-1.55 3.1 1.55h2.23l-4.21-2.11 13.88-6.89 13.88 6.94-4.22 2.06h2.24l3.1-1.55 3.1 1.55h2.24l-4.22-2.11 5.61-2.8a18.57 18.57 0 0 1 16-.24v-1.1a19.58 19.58 0 0 0-16.48.44l-6.28 3.14-13.88-6.94 13.88-6.94 6.28 3.14a19.54 19.54 0 0 0 16.48.44v-1.1a18.57 18.57 0 0 1-16-.24l-5.61-2.8 13.88-6.89 7.76 3.88v-1.12l-6.64-3.32 6.64-3.32v-1.12l-7.76 3.88-13.88-6.94 5.61-2.8a18.57 18.57 0 0 1 16-.24v-1.1a19.58 19.58 0 0 0-16.48.44l-6.28 3.14-13.88-6.94 13.88-6.94 6.28 3.14a19.54 19.54 0 0 0 16.48.44v-1.08a18.54 18.54 0 0 1-16-.24l-5.61-2.8 13.88-6.96 7.76 3.88v-1.12l-6.64-3.32 6.64-3.32v-1.12l-7.76 3.88-13.88-6.94 5.61-2.8a18.57 18.57 0 0 1 16-.24v-1.1a19.58 19.58 0 0 0-16.48.44l-6.28 3.14-13.88-6.94 13.88-6.94 6.28 3.14a19.54 19.54 0 0 0 16.48.44v-1.08a18.57 18.57 0 0 1-16-.24l-5.61-2.8 13.88-6.96 7.76 3.88v-1.12l-6.64-3.32 6.64-3.32v-1.12l-7.76 3.88-13.88-6.94 5.61-2.8a18.57 18.57 0 0 1 16-.24v-1.1a19.58 19.58 0 0 0-16.48.44l-6.28 3.14-13.88-6.94 13.88-6.94 6.28 3.14a19.54 19.54 0 0 0 16.48.44v-1.08a18.57 18.57 0 0 1-16-.24l-5.61-2.8 13.88-6.96 7.76 3.88v-1.12l-6.64-3.32 6.64-3.32v-1.12l-7.76 3.88-13.88-6.94 5.61-2.8a18.57 18.57 0 0 1 16-.24v-1.1a19.58 19.58 0 0 0-16.48.44l-6.28 3.14-13.88-6.94 13.88-6.94 6.28 3.14a19.54 19.54 0 0 0 16.48.44v-1.08a18.57 18.57 0 0 1-16-.24l-5.61-2.8 13.88-6.96 7.76 3.88v-1.12l-6.64-3.32 6.64-3.32v-1.12l-7.76 3.88-13.88-6.94 5.61-2.8a18.57 18.57 0 0 1 16-.24v-1.1a19.58 19.58 0 0 0-16.48.44l-6.28 3.14-13.88-6.94 13.88-6.94 6.28 3.14a19.54 19.54 0 0 0 16.48.44v-1.08a18.57 18.57 0 0 1-16-.24l-5.61-2.8 13.88-6.96 7.76 3.88v-1.17l-6.64-3.32 6.64-3.32v-1.07l-7.76 3.88-13.88-6.94 5.61-2.8a18.57 18.57 0 0 1 16-.24v-1.1a19.58 19.58 0 0 0-16.48.44l-6.28 3.14-13.88-6.94 13.88-6.94 6.29 3.09a19.54 19.54 0 0 0 16.5.41v-1.1a18.57 18.57 0 0 1-16-.24l-5.61-2.8 13.85-6.86 7.76 3.88v-1.17l-6.64-3.32 6.64-3.32v-1.07l-7.76 3.88-13.88-6.94 5.61-2.8a18.57 18.57 0 0 1 16-.24v-1.1a19.58 19.58 0 0 0-16.48.44l-6.28 3.14-13.88-6.94 13.88-6.94 6.29 3.09a19.54 19.54 0 0 0 16.5.41v-1.1a18.57 18.57 0 0 1-16-.24l-5.61-2.8 13.85-6.86 7.76 3.88v-1.17l-6.64-3.32 6.64-3.32v-1.07zm-67.76 5l13.88 6.94-5.62 2.75a18.54 18.54 0 0 1-16.54 0l-5.61-2.8zm-8.74 10.59a19.57 19.57 0 0 0 17.44 0l6.28-3.14 13.88 6.94-13.88 6.94-6.28-3.14a19.59 19.59 0 0 0-17.44 0l-6.28 3.14-13.88-6.94 13.88-6.94zm-5.16 11.3l5.61-2.8a18.54 18.54 0 0 1 16.54 0l5.61 2.8-13.88 6.94zm27.76 15l-5.6 2.8a18.54 18.54 0 0 1-16.54 0l-5.61-2.8 13.89-6.89zm-15-7.5l-13.88 6.94-13.88-6.94 13.88-6.94zm-12.76 22.5l5.61-2.8a18.54 18.54 0 0 1 16.54 0l5.61 2.8-13.88 6.94zm27.76 15l-5.61 2.8a18.54 18.54 0 0 1-16.54 0l-5.61-2.8 13.9-6.89zm-15-7.5l-13.88 6.94-13.88-6.94 13.88-6.94zm-12.76 22.5l5.61-2.8a18.54 18.54 0 0 1 16.54 0l5.61 2.8-13.88 6.94zm27.76 15l-5.61 2.8a18.54 18.54 0 0 1-16.54 0l-5.61-2.8 13.9-6.89zm-15-7.5l-13.88 6.94-13.88-6.94 13.88-6.94zm-12.76 22.5l5.61-2.8a18.54 18.54 0 0 1 16.54 0l5.61 2.8-13.88 6.94zm27.76 15l-5.61 2.8a18.54 18.54 0 0 1-16.54 0l-5.61-2.8 13.9-6.89zm-15-7.5l-13.88 6.94-13.88-6.94 13.88-6.94zm-12.76 22.5l5.61-2.8a18.54 18.54 0 0 1 16.54 0l5.61 2.8-13.88 6.94zm27.76 15l-5.61 2.8a18.54 18.54 0 0 1-16.54 0l-5.61-2.8 13.9-6.89zm-15-7.5l-13.88 6.94-13.88-6.94 13.88-6.94zm-12.76 22.5l5.61-2.8a18.54 18.54 0 0 1 16.54 0l5.61 2.8-13.88 6.94zm27.76 15l-5.61 2.8a18.51 18.51 0 0 1-16.54 0l-5.61-2.8 13.9-6.89zm-15-7.5l-13.88 6.94-13.88-6.94 13.88-6.94zm-45 7.5l-5.61 2.8a18.51 18.51 0 0 1-16.54 0l-5.61-2.8 13.9-6.89zm-27.76-15l5.61-2.8a18.54 18.54 0 0 1 16.54 0l5.61 2.8-13.88 6.94zm15 7.5l13.88-6.94 13.88 6.94-13.88 6.94zm28.9.61l13.88 6.94-13.88 6.94-13.88-6.94zm0-1.12l-13.88-6.94 13.88-6.94 13.88 6.94zm-13.88-21.94l13.88-6.94 13.88 6.94-13.88 6.94zm-2.24 0l-5.61 2.8a18.54 18.54 0 0 1-16.54 0l-5.61-2.8 13.88-6.94zm-27.76-15l5.61-2.8a18.54 18.54 0 0 1 16.54 0l5.61 2.8-13.88 6.94zm15 7.5l13.88-6.94 13.88 6.94-13.88 6.94zm28.88-.56l-13.88-6.94 13.88-6.94 13.88 6.94zm-13.88-21.94l13.88-6.94 13.88 6.94-13.88 6.94zm-2.24 0l-5.61 2.8a18.54 18.54 0 0 1-16.54 0l-5.61-2.8 13.88-6.94zm-27.76-15l5.61-2.8a18.54 18.54 0 0 1 16.54 0l5.61 2.8-13.88 6.94zm15 7.5l13.88-6.94 13.88 6.94-13.88 6.94zm28.88-.56l-13.88-6.94 13.88-6.94 13.88 6.94zm-13.88-21.94l13.88-6.94 13.88 6.94-13.88 6.94zm-2.24 0l-5.61 2.8a18.54 18.54 0 0 1-16.54 0l-5.61-2.8 13.88-6.94zm-27.76-15l5.61-2.8a18.54 18.54 0 0 1 16.54 0l5.61 2.8-13.88 6.94zm15 7.5l13.88-6.94 13.88 6.94-13.88 6.94zm28.88-.56l-13.88-6.94 13.88-6.94 13.88 6.94zm-13.88-21.94l13.88-6.94 13.88 6.94-13.88 6.94zm-2.24 0l-5.61 2.8a18.54 18.54 0 0 1-16.54 0l-5.61-2.8 13.88-6.94zm-27.76-15l5.61-2.8a18.54 18.54 0 0 1 16.54 0l5.61 2.8-13.88 6.94zm15 7.5l13.88-6.94 13.88 6.94-13.88 6.94zm28.88-.56l-13.88-6.94 13.88-6.94 13.88 6.94zm-13.88-22l13.88-6.88 13.88 6.94-13.88 6.94zm13.88-8.06l-13.88-6.94 13.88-6.88 13.88 6.94zm-1.12.56l-13.88 6.94-13.88-6.94 13.88-6.94zm-15 7.5l-5.62 2.81a18.54 18.54 0 0 1-16.54 0l-5.61-2.8 13.89-6.89zm-13.88-8.06l-13.88-6.94 5.61-2.8a18.54 18.54 0 0 1 16.54 0l5.61 2.8zm-1.12.56l-13.88 6.94-13.88-6.94 13.88-6.94zm-7.62 11.21a19.57 19.57 0 0 0 17.44 0l6.28-3.14 13.88 6.94-13.88 6.94-6.28-3.14a19.59 19.59 0 0 0-17.44 0l-6.28 3.14-13.88-6.94 13.88-6.94zm7.6 18.8l-13.88 6.94-13.88-6.94 13.88-6.94zm-7.6 11.2a19.57 19.57 0 0 0 17.44 0l6.28-3.14 13.88 6.94-13.88 6.94-6.28-3.14a19.59 19.59 0 0 0-17.44 0l-6.28 3.14-13.88-6.94 13.88-6.94zm7.6 18.8l-13.88 6.94-13.88-6.94 13.88-6.94zm-7.6 11.2a19.57 19.57 0 0 0 17.44 0l6.28-3.14 13.88 6.94-13.88 6.94-6.28-3.14a19.59 19.59 0 0 0-17.44 0l-6.28 3.14-13.88-6.94 13.88-6.94zm7.6 18.8l-13.88 6.94-13.88-6.94 13.88-6.94zm-7.6 11.2a19.57 19.57 0 0 0 17.44 0l6.28-3.14 13.88 6.94-13.88 6.94-6.28-3.14a19.59 19.59 0 0 0-17.44 0l-6.28 3.14-13.88-6.94 13.88-6.94zm7.6 18.8l-13.88 6.94-13.88-6.94 13.88-6.94zm-7.6 11.2a19.57 19.57 0 0 0 17.44 0l6.28-3.14 13.88 6.94-13.88 6.94-6.28-3.14a19.59 19.59 0 0 0-17.44 0l-6.28 3.14-13.88-6.94 13.88-6.94zm7.6 18.8l-13.88 6.94-13.88-6.94 13.88-6.94zm-7.6 11.2a19.57 19.57 0 0 0 17.44 0l6.28-3.14 13.88 6.94-13.88 6.94-6.28-3.14a19.59 19.59 0 0 0-17.44 0l-6.28 3.14-13.88-6.94 13.88-6.94zm22.6 11.3l-13.88 6.94-13.88-6.94 5.61-2.8a18.54 18.54 0 0 1 16.54 0zm-15 7.5l-13.88 6.94-13.88-6.94 13.88-6.94zm1.12.56l13.88 6.94-5.61 2.8a18.54 18.54 0 0 1-16.54 0l-5.61-2.8zm1.12-.56l13.88-6.94 13.88 6.94-13.88 6.94zm15-7.5l13.9-6.89 13.88 6.94-13.88 6.94zm28.88.56l13.88 6.94-13.88 6.94-13.88-6.94zm1.12-.56l5.61-2.8a18.54 18.54 0 0 1 16.54 0l5.61 2.8-13.88 6.94zm13.9 8.11l13.88 6.94-5.61 2.8a18.54 18.54 0 0 1-16.54 0l-5.61-2.8zm1.12-.56l13.88-6.94 13.88 6.94-13.88 6.94zm7.6-11.2a19.59 19.59 0 0 0-17.44 0l-6.28 3.14-13.88-6.94 13.88-6.94 6.28 3.14a19.57 19.57 0 0 0 17.44 0l6.28-3.14 13.88 6.94-13.88 6.94zm-7.6-18.8l13.88-6.94 13.88 6.94-13.88 6.94zm7.6-11.2a19.59 19.59 0 0 0-17.44 0l-6.28 3.14-13.88-6.94 13.88-6.94 6.28 3.14a19.57 19.57 0 0 0 17.44 0l6.28-3.14 13.88 6.94-13.88 6.94zm-7.6-18.8l13.88-6.94 13.88 6.94-13.88 6.94zm7.6-11.2a19.59 19.59 0 0 0-17.44 0l-6.28 3.14-13.88-6.94 13.88-6.94 6.28 3.14a19.57 19.57 0 0 0 17.44 0l6.28-3.14 13.88 6.94-13.88 6.94zm-7.6-18.8l13.88-6.94 13.88 6.94-13.88 6.94zm7.6-11.2a19.59 19.59 0 0 0-17.44 0l-6.28 3.14-13.88-6.94 13.88-6.94 6.28 3.14a19.57 19.57 0 0 0 17.44 0l6.28-3.14 13.88 6.94-13.88 6.94zm-7.6-18.8l13.88-6.94 13.88 6.94-13.88 6.94zm7.6-11.2a19.59 19.59 0 0 0-17.44 0l-6.28 3.14-13.88-6.94 13.88-6.94 6.28 3.14a19.57 19.57 0 0 0 17.44 0l6.28-3.14 13.88 6.94-13.88 6.94zm-7.6-18.8l13.88-6.94 13.88 6.94-13.88 6.94zm7.6-11.2a19.59 19.59 0 0 0-17.44 0l-6.28 3.14-13.88-6.94 13.88-6.94 6.26 3.09a19.57 19.57 0 0 0 17.44 0l6.28-3.14 13.88 6.94-13.88 6.94zm-7.6-18.8l13.88-6.94 13.88 6.94-13.88 6.94zm-31.12-29.44l13.88 6.94-13.88 6.94-13.88-6.94zm-30 0l13.88 6.94-5.62 2.75a18.54 18.54 0 0 1-16.54 0l-5.61-2.8zm-8.74 10.59a19.57 19.57 0 0 0 17.44 0l6.28-3.14 13.88 6.94-13.88 6.94-6.28-3.14a19.59 19.59 0 0 0-17.44 0l-6.28 3.14-13.88-6.94 13.88-6.94zm-35.16-3.7l13.9-6.89 13.88 6.94-13.88 6.94zm0 15l13.9-6.89 13.88 6.94-13.88 6.94zm0 15l13.9-6.89 13.88 6.94-13.88 6.94zm0 15l13.9-6.89 13.88 6.94-13.88 6.94zm0 15l13.9-6.89 13.88 6.94-13.88 6.94zm0 15l13.9-6.89 13.88 6.94-13.88 6.94zm0 15l13.9-6.89 13.88 6.94-13.88 6.94zm0 15l13.9-6.89 13.88 6.94-13.88 6.94zm0 15l13.9-6.89 13.88 6.94-13.88 6.94zm0 15l13.9-6.89 13.88 6.94-13.88 6.94zm0 15l13.9-6.89 13.88 6.94-13.88 6.94zm0 15l13.9-6.89 13.88 6.94-13.88 6.94zm0 15l13.9-6.89 13.88 6.94-13.88 6.94zm0 15l13.9-6.89 13.88 6.94-13.88 6.94zm0 15l13.9-6.89 13.88 6.94-13.88 6.94zm58.88 14.44l-6.28-3.14a19.59 19.59 0 0 0-17.44 0l-6.28 3.14-13.88-6.94 13.88-6.94 6.28 3.14a19.57 19.57 0 0 0 17.44 0l6.28-3.14 13.88 6.94zm1.12-14.44l13.9-6.89 13.88 6.94-13.88 6.94zm58.88 14.44l-6.28-3.14a19.59 19.59 0 0 0-17.44 0l-6.28 3.14-13.88-6.94 13.88-6.94 6.28 3.14a19.57 19.57 0 0 0 17.44 0l6.28-3.14 13.88 6.94zm15-7.5l-13.88-6.94 13.9-6.89 13.88 6.94zm28.88-14.44l-13.88 6.94-13.88-6.94 13.88-6.94zm-15-7.5l-13.88 6.94-13.88-6.94 13.9-6.89zm-13.88-8.06l-13.88-6.94 13.9-6.89 13.88 6.94zm28.88-14.44l-13.88 6.94-13.88-6.94 13.88-6.94zm-15-7.5l-13.88 6.94-13.88-6.94 13.9-6.89zm-13.88-8.06l-13.88-6.94 13.9-6.89 13.88 6.94zm28.88-14.44l-13.88 6.94-13.88-6.94 13.88-6.94zm-15-7.5l-13.88 6.94-13.88-6.94 13.9-6.89zm-13.88-8.06l-13.88-6.94 13.9-6.89 13.88 6.94zm28.88-14.44l-13.88 6.94-13.88-6.94 13.88-6.94zm-15-7.5l-13.88 6.94-13.88-6.94 13.9-6.89zm-13.88-8.06l-13.88-6.94 13.9-6.89 13.88 6.94zm28.88-14.44l-13.88 6.94-13.88-6.94 13.88-6.94zm-15-7.5l-13.88 6.94-13.88-6.94 13.9-6.89zm-13.88-8.06l-13.88-6.94 13.9-6.89 13.88 6.94zm28.88-14.44l-13.88 6.94-13.88-6.94 13.88-6.94zm-15-7.5l-13.88 6.94-13.88-6.94 13.9-6.89zm-13.88-8.06l-13.88-6.94 13.9-6.89 13.88 6.94zm28.88-14.44l-13.88 6.94-13.88-6.94 13.88-6.94zm-15-7.5l-13.88 6.94-13.88-6.94 13.9-6.89zm-13.88-8.06l-13.88-6.94 13.9-6.89 13.88 6.94zm-140.32-19.83l-1.9 1v1.12l4.14-2.12h-2.24z"/><path class="b" d="M229.5 30h180v240h-180v-240z"/><path class="c" d="M380.81 263.44l6.56 6.56h-1.37l-5.85-5.85-5.89 5.85h-1.41l6.56-6.56.71-.71zm-60.71-.71l-.71.71-6.55 6.56h1.41l5.85-5.85 5.9 5.85h1.41l-6.56-6.56zm-60 0l-.71.71-6.55 6.56h1.41l5.85-5.85 5.9 5.85h1.41l-6.56-6.56zm145-223.59l-4.29 4.29 4.29 4.29.71.71 3.69 3.69v2.62l-8.69 8.69 8.69 8.69v2.62l-8.69 8.69 8.69 8.69v2.62l-3.69 3.69-.71.71-4.29 4.29 4.29 4.29.71.71 3.69 3.69v2.62l-8.69 8.69 8.69 8.69v2.62l-8.69 8.69 8.69 8.69v2.62l-3.69 3.69-.71.71-4.29 4.29 4.29 4.29.71.71 3.69 3.69v2.62l-8.69 8.69 8.69 8.69v2.62l-8.69 8.69 8.69 8.69v2.62l-3.69 3.69-.71.71-4.29 4.29 4.29 4.29.71.71 3.69 3.69v2.62l-8.69 8.69 8.69 8.69v2.62l-8.69 8.69 6.56 6.56h-1.37l-5.85-5.85-.71-.71-9.29-9.29-.71-.71.71-.71 9.29-9.29.71-.71 9.29-9.29-4.29-4.29-24.29 24.29 16.51 16.57h-1.37l-15.9-15.85-15.84 15.85h-1.41l16.56-16.56-24.31-24.29-4.29 4.29 9.29 9.29.71.71 9.29 9.29.71.71-.71.71-9.29 9.29-.71.71-5.84 5.85h-1.41l6.56-6.56-9.29-9.29-9.29 9.29 6.56 6.56h-1.39l-5.85-5.85-.71-.71-9.29-9.29-.71-.71.71-.71 9.29-9.29.71-.71 9.29-9.29-4.29-4.29-24.29 24.29 16.51 16.56h-1.37l-15.9-15.85-15.84 15.85h-1.41l16.56-16.56-24.31-24.29-4.29 4.29 9.29 9.29.71.71 9.29 9.29.71.71-.71.71-9.29 9.29-.71.71-5.84 5.85h-1.41l6.56-6.56-9.29-9.29-9.29 9.29 6.56 6.56h-1.39l-5.85-5.85-.71-.71-9.29-9.29-.71-.71.71-.71 9.29-9.29.71-.71 9.29-9.29-4.29-4.29-24.29 24.29 16.51 16.56h-1.37l-15.9-15.85-15.84 15.85h-1.41l16.56-16.56-24.31-24.29-4.29 4.29 9.29 9.29.71.71 9.29 9.29.71.71-.71.71-9.29 9.29-.71.71-5.84 5.85h-1.41l6.56-6.56-9.29-9.29-.6.6v-2.62l.6.6 9.29-9.29-9.29-9.29-.6.6v-2.62l.6.6 4.29-4.29.71-.71 4.29-4.29-4.29-4.29-.71-.71-4.29-4.29-.6.6v-2.62l.6.6 9.29-9.29-9.29-9.29-.6.6v-2.62l.6.6 9.29-9.29-9.29-9.29-.6.6v-2.62l.6.6 4.29-4.29.71-.71 4.29-4.29-4.29-4.29-.71-.71-4.29-4.29-.6.6v-2.62l.6.6 9.29-9.29-9.29-9.29-.6.6v-2.62l.6.6 9.29-9.29-9.29-9.29-.6.6v-2.62l.6.6 4.29-4.29.71-.71 4.29-4.29-4.29-4.29-.71-.71-4.29-4.29-.6.6v-2.62l.6.6 9.29-9.29-9.29-9.29-.6.6v-2.62l.6.6 9.29-9.29-9.29-9.29-.6.6v-2.62l.6.6 4.29-4.29.71-.71 4.29-4.29-4.29-4.29-.71-.71-4.29-4.29-.6.6v-2.62l.6.6 2.72-2.73h1.41l-3.44 3.44 4.29 4.29 7.74-7.73h1.41l-8.44 8.44 4.29 4.29 9.29-9.29.71-.71 2.74-2.73h1.41l-3.44 3.44 9.29 9.29 9.29-9.29-3.39-3.44h1.41l2.74 2.74.71.71 9.29 9.29 4.29-4.29-8.44-8.45h1.41l7.74 7.74 4.29-4.29-3.44-3.45h1.41l2.74 2.74 2.69-2.74h1.41l-3.44 3.44 4.29 4.29 7.74-7.73h1.41l-8.44 8.44 4.29 4.29 9.29-9.29.71-.71 2.74-2.73h1.41l-3.44 3.44 9.29 9.29 9.29-9.29-3.39-3.44h1.41l2.74 2.74.71.71 9.29 9.29 4.29-4.29-8.44-8.45h1.41l7.74 7.74 4.29-4.29-3.44-3.45h1.41l2.74 2.74 2.69-2.74h1.41l-3.44 3.44 4.29 4.29 7.74-7.73h1.41l-8.44 8.44 4.29 4.29 9.29-9.29.71-.71 2.74-2.73h1.41l-3.44 3.44 9.29 9.29 9.29-9.29-3.39-3.44h1.41l2.74 2.74.71.71 9.29 9.29 4.29-4.29-8.44-8.45h1.41l7.74 7.74 4.29-4.29-3.44-3.45h1.41l2.13 2.13v2.62l-3.69 3.69zm-165 205l-9.29 9.29 9.29 9.29 9.29-9.29zm160 0l-9.29 9.29 9.29 9.29 9.29-9.29zm-19.29-200.7l9.29 9.29 9.29-9.29-9.29-9.29zm-.71.71l-9.29 9.29 9.29 9.29 9.29-9.29zm-19.29-.71l9.29 9.29 9.29-9.29-9.29-9.29zm-20 0l4.29 4.29.71.71 4.29 4.29 4.29-4.29.71-.71 4.29-4.29-4.29-4.29-.71-.71-4.29-4.29-4.29 4.29-.71.71zm-30.71 170.71l-9.29 9.29 9.29 9.29 9.29-9.29zm10 8.59l9.29-9.29-9.29-9.29-9.29 9.29zm-9.29 10.71l9.29 9.29 9.29-9.29-9.29-9.29zm19.29-.71l9.29-9.29-9.29-9.29-9.29 9.29zm10-10l4.29-4.29-24.29-24.3-24.29 24.29 4.29 4.29 9.29-9.29.71-.71 9.29-9.29.71-.71.71.71 9.29 9.29.71.71zm.71-139.29l9.29 9.29 9.29-9.29-9.29-9.29zm8.59-10l-9.29-9.29-9.29 9.29 9.29 9.29zm10.71 9.29l9.29-9.29-9.29-9.29-9.29 9.29zm-.71-19.3l-9.29-9.29-9.29 9.29 9.29 9.29zm-10-10l-4.29-4.29-24.3 24.29 24.29 24.3 4.29-4.29-9.29-9.29-.71-.71-9.29-9.29-.71-.71.71-.71 9.29-9.29.71-.71zm-29.3 20.71l-24.29 24.29 4.29 4.29 9.29-9.29.71-.71 9.29-9.29.71-.71.71.71 9.29 9.29.71.71 9.29 9.29 4.29-4.29zm20.71 69.29l9.29 9.29 9.29-9.29-9.29-9.29zm8.59-10l-9.29-9.29-9.29 9.29 9.29 9.29zm10.71 9.29l9.29-9.29-9.29-9.29-9.29 9.29zm-.71-19.29l-9.29-9.29-9.29 9.29 9.29 9.29zm-10-10l-4.29-4.29-24.29 24.29 24.29 24.29 4.29-4.29-9.29-9.29-.71-.71-9.29-9.29-.71-.71.71-.71 9.29-9.29.71-.71zm-19.3 59.3l9.29-9.29-9.29-9.29-9.29 9.29zm-10-8.59l-9.29 9.29 9.29 9.29 9.29-9.29zm9.29-10.71l-9.29-9.29-9.29 9.29 9.29 9.29zm-19.29.71l-9.29 9.29 9.29 9.29 9.29-9.29zm-10 10l-4.29 4.29 24.29 24.29 24.29-24.29-4.29-4.29-9.29 9.29-.71.71-9.29 9.29-.71.71-.71-.71-9.29-9.29-.71-.71zm40-1.41l4.29-4.29-24.29-24.3-24.29 24.29 4.29 4.29 9.29-9.29.71-.71 9.29-9.29.71-.71.71.71 9.29 9.29.71.71zm-40.7-39.3l-9.29-9.29-9.29 9.29 9.29 9.29zm-8.59 10l9.29 9.29 9.29-9.29-9.29-9.29zm-10.71-9.29l-9.29 9.29 9.29 9.29 9.29-9.29zm.71 19.29l9.29 9.29 9.29-9.29-9.29-9.29zm10 10l4.29 4.29 24.29-24.29-24.29-24.29-4.29 4.29 9.29 9.29.71.71 9.29 9.29.71.71-.71.71-9.29 9.29-.71.71zm53.59-45l-4.29-4.29-9.29 9.29-.71.71-9.29 9.29-.71.71-.71-.71-9.29-9.29-.71-.71-9.29-9.29-4.29 4.29 24.29 24.29zm-14.29 4.29l9.29-9.29-9.29-9.29-9.29 9.29zm-10-8.59l-9.29 9.29 9.29 9.29 9.29-9.29zm9.29-10.71l-9.29-9.29-9.29 9.29 9.29 9.29zm-19.29.71l-9.29 9.29 9.29 9.29 9.29-9.29zm9.29-20.71l-24.3-24.28-4.29 4.29 9.29 9.29.71.71 9.29 9.29.71.71-.71.71-9.29 9.29-.71.71-9.29 9.29 4.29 4.29zm-38.59 10l9.29 9.29 9.29-9.29-9.29-9.29zm8.59-10l-9.29-9.29-9.29 9.29 9.29 9.29zm10.71 9.29l9.29-9.29-9.29-9.29-9.29 9.29zm-10-28.59l-9.29 9.29 9.29 9.29 9.29-9.29zm-.71-.71l-4.29-4.29-24.3 24.31 24.29 24.3 4.29-4.29-9.29-9.29-.71-.71-9.29-9.29-.71-.71.71-.71 9.29-9.29.71-.71zm-4.3 45.73l-4.29 4.29 4.29 4.29.71.71 4.29 4.29 4.29-4.29.71-.71 4.29-4.29-4.29-4.29-.71-.71-4.29-4.29-4.29 4.29zm0 10l-24.29 24.29 24.29 24.29 4.29-4.29-9.29-9.29-.71-.71-9.29-9.29-.71-.71.71-.71 9.29-9.29.71-.71 9.29-9.29zm0 50l-4.29 4.29 4.29 4.29.71.71 4.29 4.29 4.29-4.29.71-.71 4.29-4.29-4.29-4.29-.71-.71-4.29-4.29-4.29 4.29zm14.29 24.29l-9.29-9.29-9.29 9.29 9.29 9.29zm-8.59 10l9.29 9.29 9.29-9.29-9.29-9.29zm-10.71-9.29l-9.29 9.29 9.29 9.29 9.29-9.29zm5-15l-24.29 24.29 24.29 24.29 4.29-4.29-9.29-9.29-.71-.71-9.29-9.29-.71-.71.71-.71 9.29-9.29.71-.71 9.29-9.29zm5 43.59l9.29-9.29-9.29-9.29-9.29 9.29zm.71.71l4.29 4.29 24.29-24.29-24.28-24.3-4.29 4.29 9.29 9.29.71.71 9.29 9.29.71.71-.71.71-9.29 9.29-.71.71zm54.29 4.29l4.29-4.29-9.29-9.29-.71-.71-9.29-9.29-.71-.71.71-.71 9.29-9.29.71-.71 9.29-9.29-4.29-4.29-24.29 24.29zm14.29-34.29l-9.29-9.29-9.29 9.29 9.29 9.29zm-8.59 10l9.29 9.29 9.29-9.29-9.29-9.29zm-10.71-9.29l-9.29 9.29 9.29 9.29 9.29-9.29zm10 28.59l9.29-9.29-9.29-9.29-9.29 9.29zm.71.71l4.29 4.29 24.29-24.29-24.27-24.31-4.29 4.29 9.29 9.29.71.71 9.29 9.29.71.71-.71.71-9.29 9.29-.71.71zm4.29-45.71l4.29-4.29-4.29-4.29-.71-.71-4.29-4.29-4.29 4.29-.71.71-4.29 4.29 4.29 4.29.71.71 4.29 4.29 4.29-4.29zm0-10l24.29-24.29-24.27-24.31-4.29 4.29 9.29 9.29.71.71 9.29 9.29.71.71-.71.71-9.29 9.29-.71.71-9.29 9.29zm0-50l4.29-4.29-4.29-4.29-.71-.71-4.29-4.29-4.29 4.29-.71.71-4.29 4.29 4.29 4.29.71.71 4.29 4.29 4.29-4.29zm0-10l24.32-24.31-24.3-24.29-4.29 4.29 9.29 9.29.71.71 9.29 9.29.71.71-.71.71-9.29 9.29-.71.71-9.29 9.29zm-34.27-54.31l9.29 9.29 9.29-9.29-9.29-9.29zm-.71.71l-9.29 9.29 9.29 9.29 9.29-9.29zm-19.29-.71l9.29 9.29 9.29-9.29-9.29-9.29zm-.71.71l-4.29 4.29 24.29 24.3 24.3-24.3-4.29-4.29-9.29 9.29-.71.71-9.29 9.29-.71.71-.71-.71-9.29-9.29-.71-.71zm-19.29-.71l4.29 4.29.71.71 4.29 4.29 4.29-4.29.71-.71 4.29-4.29-4.29-4.29-.71-.71-4.29-4.29-4.29 4.29-.71.71zm-20 0l9.29 9.29 9.29-9.29-9.29-9.29zm-.71.71l-9.29 9.29 9.29 9.29 9.29-9.29zm-19.29-.71l9.29 9.29 9.29-9.29-9.29-9.29zm-5 5l24.29 24.3 24.3-24.3-4.29-4.29-9.29 9.29-.71.71-9.29 9.29-.71.71-.71-.71-9.29-9.29-.71-.71-9.29-9.29zm4.29 34.29l9.29-9.29-9.29-9.29-9.29 9.29zm-5 15l24.3-24.29-24.3-24.29-4.29 4.29 9.29 9.29.71.71 9.29 9.29.71.71-.71.71-9.29 9.29-.71.71-9.29 9.29zm5 5l9.29-9.29.71-.71 9.29-9.29.71-.71.71.71 9.29 9.29.71.71 9.29 9.29 4.29-4.29-24.29-24.29-24.29 24.29zm10-8.59l-9.29 9.29 9.29 9.29 9.29-9.29zm10 8.59l9.29-9.29-9.29-9.29-9.29 9.29zm-9.29 10.71l9.29 9.29 9.29-9.29-9.29-9.29zm19.29-.71l9.29-9.29-9.29-9.29-9.29 9.29zm-34.29-4.29l24.29 24.29 24.29-24.29-4.29-4.29-9.29 9.29-.71.71-9.29 9.29-.71.71-.71-.71-9.29-9.29-.71-.71-9.29-9.29zm4.29 34.29l9.29-9.29-9.29-9.29-9.29 9.29zm-5 15l24.29-24.29-24.29-24.29-4.29 4.29 9.29 9.29.71.71 9.29 9.29.71.71-.71.71-9.29 9.29-.71.71-9.29 9.29zm5 5l9.29-9.29.71-.71 9.29-9.29.71-.71.71.71 9.29 9.29.71.71 9.29 9.29 4.29-4.29-24.29-24.29-24.29 24.29zm10-8.59l-9.29 9.29 9.29 9.29 9.29-9.29zm10 8.59l9.29-9.29-9.29-9.29-9.29 9.29zm-9.29 10.71l9.29 9.29 9.29-9.29-9.29-9.29zm19.29-.71l9.29-9.29-9.29-9.29-9.29 9.29zm-34.29-4.29l24.29 24.29 24.29-24.29-4.29-4.29-9.29 9.29-.71.71-9.29 9.29-.71.71-.71-.71-9.29-9.29-.71-.71-9.29-9.29zm4.29 34.29l9.29-9.29-9.29-9.29-9.29 9.29zm-5 15l24.29-24.29-24.29-24.29-4.29 4.29 9.29 9.29.71.71 9.29 9.29.71.71-.71.71-9.29 9.29-.71.71-9.29 9.29zm5 5l9.29-9.29.71-.71 9.29-9.29.71-.71.71.71 9.29 9.29.71.71 9.29 9.29 4.29-4.29-24.29-24.29-24.29 24.29zm10-8.59l-9.29 9.29 9.29 9.29 9.29-9.29zm10 8.59l9.29-9.29-9.29-9.29-9.29 9.29zm-9.29 10.71l9.29 9.29 9.29-9.29-9.29-9.29zm19.29-.71l9.29-9.29-9.29-9.29-9.29 9.29zm14.29-4.29l-4.29-4.29-9.29 9.29-.71.71-9.29 9.29-.71.71-.71-.71-9.29-9.29-.71-.71-9.29-9.29-4.29 4.29 24.29 24.29zm5 25l-9.29-9.29-9.29 9.29 9.29 9.29zm10.71-9.29l-9.29 9.29 9.29 9.29 9.29-9.29zm-10-10l-9.29 9.29 9.29 9.29 9.29-9.29zm5-6.41l4.29-4.29-4.29-4.29-.71-.71-4.29-4.29-4.29 4.29-.71.71-4.29 4.29 4.29 4.29.71.71 4.29 4.29 4.29-4.29zm49.29.71l-4.29-4.29-9.29 9.29-.71.71-9.29 9.29-.71.71-.71-.71-9.29-9.29-.71-.71-9.29-9.29-4.29 4.29 24.29 24.29zm5 25l-9.29-9.29-9.29 9.29 9.29 9.29zm10.71-9.29l-9.29 9.29 9.29 9.29 9.29-9.29zm-10-10l-9.29 9.29 9.29 9.29 9.29-9.29zm5-6.41l4.29-4.29-4.29-4.29-.71-.71-4.29-4.29-4.29 4.29-.71.71-4.29 4.29 4.29 4.29.71.71 4.29 4.29 4.29-4.29zm45-3.59l-9.29 9.29-.71.71-9.29 9.29-.71.71-.71-.71-9.29-9.29-.71-.71-9.29-9.29-4.29 4.29 24.29 24.29 24.29-24.29zm-10 8.59l9.29-9.29-9.29-9.29-9.29 9.29zm-10-8.59l-9.29 9.29 9.29 9.29 9.29-9.29zm9.29-10.71l-9.29-9.29-9.29 9.29 9.29 9.29zm-19.29.71l-9.29 9.29 9.29 9.29 9.29-9.29zm34.29 4.29l-24.29-24.3-24.29 24.29 4.29 4.29 9.29-9.29.71-.71 9.29-9.29.71-.71.71.71 9.29 9.29.71.71 9.29 9.29zm-4.29-34.29l-9.29 9.29 9.29 9.29 9.29-9.29zm5-15l-24.29 24.29 24.29 24.29 4.29-4.29-9.29-9.29-.71-.71-9.29-9.29-.71-.71.71-.71 9.29-9.29.71-.71 9.29-9.29zm-5-5l-9.29 9.29-.71.71-9.29 9.29-.71.71-.71-.71-9.29-9.29-.71-.71-9.29-9.29-4.29 4.29 24.29 24.29 24.29-24.29zm-10 8.59l9.29-9.29-9.29-9.29-9.29 9.29zm-10-8.59l-9.29 9.29 9.29 9.29 9.29-9.29zm9.29-10.71l-9.29-9.29-9.29 9.29 9.29 9.29zm-19.29.71l-9.29 9.29 9.29 9.29 9.29-9.29zm34.29 4.29l-24.29-24.3-24.29 24.29 4.29 4.29 9.29-9.29.71-.71 9.29-9.29.71-.71.71.71 9.29 9.29.71.71 9.29 9.29zm-4.29-34.29l-9.29 9.29 9.29 9.29 9.29-9.29zm5-15l-24.29 24.29 24.29 24.29 4.29-4.29-9.29-9.29-.71-.71-9.29-9.29-.71-.71.71-.71 9.29-9.29.71-.71 9.29-9.29zm-5-5l-9.29 9.29-.71.71-9.29 9.29-.71.71-.71-.71-9.29-9.29-.71-.71-9.29-9.29-4.29 4.29 24.29 24.29 24.29-24.29zm-10 8.59l9.29-9.29-9.29-9.29-9.29 9.29zm-10-8.59l-9.29 9.29 9.29 9.29 9.29-9.29zm9.29-10.71l-9.29-9.29-9.29 9.29 9.29 9.29zm-19.29.71l-9.29 9.29 9.29 9.29 9.29-9.29zm34.29 4.29l-24.29-24.3-24.29 24.29 4.29 4.29 9.29-9.29.71-.71 9.29-9.29.71-.71.71.71 9.29 9.29.71.71 9.29 9.29zm-4.29-34.3l-9.29 9.29 9.29 9.29 9.29-9.29zm5-15l-24.29 24.29 24.29 24.3 4.29-4.29-9.29-9.29-.71-.71-9.29-9.29-.71-.71.71-.71 9.29-9.29.71-.71 9.29-9.29zm-5-5l-9.29 9.29-.71.71-9.29 9.29-.71.71-.71-.71-9.29-9.29-.71-.71-9.29-9.29-4.29 4.29 24.29 24.3 24.3-24.3z"/><path class="b" d="M429 30h180v240h-180v-240z"/><path class="c" d="M429.36 224.72l6.79 6.79-7.15 7.16v1.41l.36-.36 13.79 13.79h-13.58l-.57-.57v2.14l.57-.57h13.59l-13.79 13.79-.36-.36v1.41l.64.64h1.41l-1-1 14.29-14.29 6.79 6.79-8.47 8.51h1.41l.28-.28.28.28h1.41l-1-1 6.79-6.79 7.78 7.78h1.38l-1-1 14.29-14.29 6.79 6.79-7.08 7.17-1.33 1.34h1.41l.28-.28.28.28h1.41l-1-1 6.79-6.79 7.78 7.78h1.38l-1-1 14.29-14.29 6.79 6.79-8.41 8.51h1.41l.28-.28.28.28h1.41l-1-1 6.79-6.79 7.78 7.78h1.38l-1-1 14.29-14.29 6.79 6.79-7.08 7.17-1.33 1.34h1.41l.28-.28.28.28h1.41l-1-1 6.79-6.79 7.78 7.78h1.38l-1-1 14.29-14.29 6.79 6.79-8.41 8.51h1.41l.28-.28.28.28h1.41l-1-1 6.79-6.79 7.78 7.78h1.38l-1-1 14.29-14.29 6.79 6.79-7.08 7.17-1.33 1.34h1.41l.28-.28.28.28h1.36l-1-1 6.79-6.79 7.14 7.14v-1.41l-6.43-6.43 6.43-6.43v-2.14l-6.43-6.43 6.43-6.43v-1.41l-7.14 7.14-6.72-6.81 13.93-13.91v-2.09l-13.93-14 6.79-6.79 7.14 7.14v-1.41l-6.43-6.43 6.43-6.43v-2.14l-6.43-6.43 6.43-6.43v-1.41l-7.14 7.14-6.79-6.81 13.93-13.91v-2.09l-13.93-14 6.79-6.79 7.14 7.14v-1.41l-6.43-6.43 6.43-6.43v-2.14l-6.43-6.43 6.43-6.43v-1.41l-7.14 7.14-6.79-6.81 13.93-13.91v-2.09l-13.93-14 6.79-6.79 7.14 7.15v-1.36l-6.43-6.43 6.43-6.48v-2.09l-6.43-6.43 6.43-6.48v-1.42l-7.14 7.14-6.79-6.81 13.93-13.91v-2.09l-13-13h-1.41l13.52 13.52h-13.54l-7-7 6.52-6.52h-1.41l-5.81 5.81-5.87-5.81h-1.41l6.52 6.52-6.79 6.79-13.27-13.31h-1.41l13.52 13.52h-13.59l-7-7 6.52-6.52h-1.41l-5.81 5.81-5.82-5.81h-1.41l6.52 6.52-6.79 6.79-13.32-13.31h-1.41l13.52 13.52h-13.59l-7-7 6.52-6.52h-1.41l-5.81 5.81-5.82-5.81h-1.41l6.52 6.52-6.79 6.79-13.32-13.31h-1.41l13.52 13.52h-13.59l-7-7 6.52-6.52h-1.41l-5.81 5.81-5.82-5.81h-1.41l6.52 6.52-6.79 6.79-13.32-13.31h-1.41l13.52 13.52h-13.59l-7-7 6.52-6.52h-1.41l-5.81 5.81-5.82-5.81h-1.41l6.52 6.52-6.79 6.79-13.32-13.31h-1.41l13.52 13.52h-13.59l-7-7 6.52-6.52h-1.41l-5.81 5.81-5.82-5.81h-1.41l6.52 6.52-6.79 6.79-.37-.31v2.14l.36-.36 6.79 6.79-7.15 7.1v1.41l.36-.36 13.79 13.79h-13.58l-.57-.51v2.14l.57-.57h13.59l-13.8 13.79-.36-.36v1.41l7.15 7.15-6.79 6.79-.36-.36v2.14l.36-.36 6.79 6.79-7.15 7.11v1.41l.36-.36 13.79 13.79h-13.58l-.57-.57v2.14l.57-.57h13.59l-13.79 13.79-.36-.36v1.41l7.15 7.15-6.79 6.79-.36-.36v2.14l.36-.36 6.79 6.79-7.16 7.17v1.41l.36-.36 13.79 13.79h-13.58l-.57-.57v2.14l.57-.57h13.59l-13.79 13.79-.36-.36v1.41l7.15 7.15-6.79 6.79-.36-.36v2.14zm7.5 7.5l14.29 14.29-6.79 6.79-14.29-14.3zm8.71-38.71l6.29-6.29 6.79 6.79-6.79 6.79-6.79-6.8zm0-60l6.29-6.29 6.79 6.79-6.79 6.79-6.79-6.8zm0-60l6.29-6.29 6.79 6.78-6.79 6.79-6.79-6.79zm-8-22l7-7h13.59l-13.8 13.8zm21.79-6.79l6.79 6.79-14.29 14.3-6.79-6.81zm28.79-.21l-13.79 13.8-6.79-6.79 7-7h13.58zm60 0l-13.79 13.8-6.79-6.79 7-7h13.58zm31.41 209l-7-7 6.79-6.79 13.79 13.79h-13.58zm-7.71-7.71l-6.78-6.8 14.29-14.29 6.79 6.79zm-82.49-186.08l13.79 13.79h-13.58l-7-7zm30 0l13.79 13.79h-13.58l-7-7zm30 0l13.79 13.79h-13.58l-7-7zm29.29 14.28l-6.79 6.79-6.79-6.79.5-.5 6.29-6.29zm0 60l-6.79 6.79-6.79-6.79.5-.5 6.29-6.29zm0 60l-6.79 6.79-6.79-6.79.5-.5 6.29-6.29zm-21.09 37.5l7-7h13.59l-13.79 13.79zm-23.21 6.79l-6.79-6.79 7-7h13.59zm-36.79-6.79l7-7h13.59l-13.79 13.79zm-23.21 6.79l-6.79-6.79 7-7h13.59zm1.21-44.79l6.29-6.29 6.79 6.79-6.79 6.79-6.78-6.79zm0-60l6.29-6.29 6.79 6.79-6.79 6.79-6.78-6.79zm74-59h13.59l-13.79 13.81-6.79-6.79zm6.59 22l-6.79 6.79-14.29-14.29 6.79-6.79zm-21.59 127l-7-7 6.79-6.79 13.79 13.79h-13.58zm-30 0l-7-7 6.79-6.79 13.79 13.79h-13.58zm-.2-133.78l13.79 13.79h-13.58l-7-7zm30 0l13.79 13.79h-13.58l-7-7zm14.29 44.28l-6.79 6.79-6.79-6.79.5-.5 6.29-6.29zm0 60l-6.79 6.79-6.79-6.79.5-.5 6.29-6.29zm-36.09 7.5l7-7h13.59l-13.79 13.79zm-7-8l6.29-6.29 6.79 6.79-6.79 6.79-6.78-6.79zm0-60l6.29-6.29 6.79 6.79-6.79 6.79-6.78-6.79zm13.79-13.79l13.79 13.79h-13.57l-7-7zm.21 14.79h13.59l-13.79 13.79-6.79-6.79zm6.59 22l-6.79 6.79-14.29-14.29 6.79-6.79zm.71.71l6.79 6.79-6.79 6.79-6.79-6.79zm-.71 14.29l-14.29 14.29-6.79-6.79 14.29-14.29zm-6.79 8.21l13.79 13.79h-13.58l-7-7zm15 13.59l-14.29-14.3 6.79-6.79 7.15 7.15 7.15 7.15zm0-15l-6.79-6.79 7-7h13.59zm.21-14.79l-7-7 6.79-6.79 13.79 13.79h-13.58zm-.57-14.85l-7.15 7.15-6.78-6.81 14.29-14.29 6.79 6.79zm.35-15.35l-14.28-14.31 6.79-6.79 7.15 7.15 7.15 7.15zm0-15l-6.79-6.79 7-7h13.59zm-.7-14.31l-6.79 6.79-6.79-6.79 6.79-6.79zm-7.5 7.5l-14.29 14.29-6.79-6.79 14.29-14.29zm-22.5-7.5l-6.79 6.79-6.79-6.79 6.79-6.79zm.91.5h13.59l-13.79 13.79-6.79-6.79zm6.59 22l-6.79 6.79-14.29-14.29 6.79-6.79zm-6.79 8.21l6.79 6.79-14.29 14.29-6.79-6.79zm0 15l13.79 13.79h-13.58l-7-7zm-.71 14.29l-6.79 6.79-6.79-6.79 6.79-6.79zm.91.5h13.59l-13.79 13.79-6.79-6.79zm6.59 22l-6.79 6.79-14.29-14.29 6.79-6.79zm-6.79 8.21l6.79 6.79-14.29 14.29-6.79-6.79zm.71 14.29l6.79-6.79 14.29 14.29-6.79 6.79zm15 0l14.29-14.29 6.79 6.79-7.15 7.16-7.15 7.15zm15 0l6.79-6.79 14.29 14.29-6.79 6.79zm7.5-7.5l7-7h13.59l-13.79 13.79zm7-8l-7-7 6.79-6.79 13.79 13.79h-13.58zm-7.71-7.71l-6.79-6.79 14.29-14.29 6.79 6.79zm8.21-21.79l6.79-6.79 6.79 6.79-6.79 6.79zm-.71-.71l-14.29-14.29 6.79-6.79 14.29 14.29zm-6.79-21.79l7-7h13.59l-13.79 13.79zm7-8l-7-7 6.79-6.79 13.79 13.79h-13.58zm-7.71-7.71l-6.79-6.79 14.29-14.29 6.79 6.79zm8.21-21.79l6.79-6.79 6.79 6.79-6.79 6.79zm-16.07-15.34l-7.15 7.15-6.78-6.81 14.29-14.29 6.79 6.79zm-14.43-14.14h13.59l-13.8 13.79-6.79-6.79zm6.59 22l-6.79 6.79-14.3-14.31 6.79-6.79zm-29.29-.71l-6.8-6.81 14.29-14.29 6.79 6.79zm-7.29-21.29h13.59l-13.81 13.79-6.79-6.79zm6.59 22l-6.79 6.79-14.31-14.31 6.79-6.79zm0 15l-14.29 14.29-6.81-6.81 14.29-14.29zm-6.79 8.21l13.79 13.79h-13.6l-7-7zm.21 14.79h13.59l-13.79 13.79-6.79-6.79zm6.59 22l-6.79 6.79-14.32-14.31 6.79-6.79zm0 15l-14.29 14.29-6.82-6.81 14.29-14.29zm-6.79 8.21l13.79 13.79h-13.61l-7-7zm.21 14.79h13.59l-13.79 13.79-6.79-6.79zm6.59 22l-6.79 6.79-14.33-14.31 6.79-6.79zm.71.71l6.79 6.79-6.79 6.79-6.83-6.81zm30 0l6.79 6.79-6.79 6.79-6.83-6.81zm30 0l6.79 6.79-6.79 6.79-6.83-6.81zm7.71 6.29l-7-7 6.79-6.79 13.79 13.79h-13.58zm-7.71-7.71l-6.83-6.81 14.29-14.29 6.79 6.79zm7.5-22.5l-14.33-14.31 6.79-6.79 14.29 14.29zm-6.79-21.79l7-7h13.59l-13.79 13.79zm7-8l-7-7 6.79-6.79 13.79 13.79h-13.58zm-7.71-7.71l-6.83-6.81 14.29-14.29 6.79 6.79zm7.5-22.5l-14.33-14.31 6.79-6.79 14.29 14.29zm-6.79-21.79l7-7h13.59l-13.79 13.79zm7-8l-7-7 6.79-6.79 13.79 13.79h-13.58zm-7.71-7.71l-6.83-6.81 14.29-14.29 6.79 6.79zm-8.25-21.81l-6.79 6.79-6.79-6.79.5-.5 6.29-6.29zm-30 0l-6.79 6.79-6.79-6.79.5-.5 6.29-6.29zm-30 0l-6.79 6.79-6.79-6.79.5-.5 6.29-6.29zm-14.29.71l6.79 6.79-7.15 7.16-7.15 7.15-6.78-6.81zm0 15l13.79 13.79h-13.58l-7-7zm-.71 14.29l-6.79 6.79-6.79-6.79 6.79-6.79zm.91.5h13.59l-13.79 13.79-6.79-6.79zm-.56 14.87l7.15 7.15-6.79 6.79-14.29-14.31 6.79-6.79zm.35 15.35l6.79 6.79-7.14 7.15-7.15 7.15-6.78-6.81zm0 15l13.79 13.79h-13.57l-7-7zm-.7 14.28l-6.79 6.79-6.79-6.79 6.79-6.79zm.91.5h13.59l-13.79 13.79-6.79-6.79zm-.56 14.87l7.15 7.15-6.79 6.79-14.29-14.31 6.79-6.79zm.35 15.35l6.79 6.79-7.14 7.15-7.15 7.15-6.78-6.81zm0 15l13.79 13.79h-13.57l-7-7zm-.7 14.28l-6.79 6.79-6.79-6.79 6.79-6.79zm-7.5 7.5l-14.29 14.29-6.79-6.79 14.29-14.29zm-6.79 8.21l13.79 13.79h-13.58l-7-7zm15 13.59l-14.29-14.3 6.79-6.79 7.15 7.15 7.15 7.15zm.71-14.3l14.29-14.29 6.79 6.79-14.29 14.29zm14.29.71l13.79 13.79h-13.58l-7-7zm.71-.71l6.79-6.79 14.29 14.29-6.79 6.79zm15 0l14.29-14.29 6.79 6.79-14.29 14.29zm14.29.71l13.79 13.79h-13.58l-7-7zm15 13.59l-14.29-14.3 6.79-6.79 7.15 7.15 7.15 7.15zm.71-14.3l14.29-14.29 6.79 6.79-14.29 14.29zm14.29.71l13.79 13.79h-13.58l-7-7zm.71-.71l6.79-6.79 14.29 14.29-6.79 6.79zm30-15l6.79-6.79 6.79 6.79-6.79 6.79zm-.71-.71l-14.29-14.29 6.79-6.79 14.29 14.29zm-6.79-21.79l7-7h13.59l-13.79 13.79zm7-8l-7-7 6.79-6.79 13.79 13.79h-13.58zm-7.71-7.71l-6.79-6.79 14.29-14.29 6.79 6.79zm8.21-21.79l6.79-6.79 6.79 6.79-6.79 6.79zm-.71-.71l-14.29-14.29 6.79-6.79 14.29 14.29zm-6.79-21.79l7-7h13.59l-13.79 13.79zm7-8l-7-7 6.79-6.79 13.79 13.79h-13.58zm-7.71-7.71l-6.79-6.79 14.29-14.29 6.79 6.79zm8.21-21.79l6.79-6.79 6.79 6.79-6.79 6.79zm-.71-.71l-14.29-14.29 6.79-6.79 14.29 14.29zm-6.79-21.79l7-7h13.59l-13.8 13.81zm7-8l-7-7 6.79-6.79 13.79 13.79h-13.58zm-7.71-7.71l-6.79-6.79 14.29-14.29 6.79 6.79zm-7.5-7.5l-6.79-6.79 7-7h13.59zm6.79 8.21l-6.79 6.79-14.29-14.29 6.79-6.79zm-29.29-.71l-6.79-6.79 14.29-14.29 6.79 6.79zm-7.86-6.42l7.15 7.15-6.79 6.79-14.29-14.31 6.79-6.79zm-22.15 6.44l-6.78-6.81 14.29-14.29 6.79 6.79zm-7.5-7.5l-6.79-6.79 7-7h13.59zm6.79 8.21l-6.79 6.79-14.28-14.31 6.79-6.79zm-29.29-.71l-6.78-6.81 14.29-14.29 6.79 6.79zm-7.85-6.44l7.15 7.15-6.79 6.79-14.29-14.31 6.79-6.79zm-14.65.35l13.79 13.79h-13.57l-7-7zm.21 14.79h13.59l-13.79 13.8-6.79-6.79zm6.59 22l-6.79 6.79-14.29-14.3 6.79-6.79zm-21.79-6.79l13.79 13.79h-13.58l-7-7zm.21 14.79h13.59l-13.79 13.79-6.79-6.79zm14.79.21l6.79 6.79-14.29 14.29-6.79-6.8zm0 15l13.79 13.79h-13.58l-7-7zm.21 14.79h13.59l-13.79 13.79-6.79-6.79zm6.59 22l-6.79 6.79-14.3-14.3 6.79-6.79zm-21.79-6.79l13.79 13.79h-13.59l-7-7zm.21 14.79h13.59l-13.79 13.79-6.79-6.79zm14.79.21l6.79 6.79-14.29 14.29-6.8-6.8zm0 15l13.79 13.79h-13.59l-7-7zm.21 14.79h13.59l-13.79 13.79-6.79-6.79zm6.59 22l-6.79 6.79-14.31-14.3 6.79-6.79zm-21.79-6.79l13.79 13.79h-13.6l-7-7zm.21 14.79h13.59l-13.79 13.79-6.79-6.79zm.5 29.5l.5-.5 6.29-6.29 6.79 6.79-6.79 6.79zm14.29 14.29l-6.79-6.79 7-7h13.59zm15.69-14.3l.5-.5 6.29-6.29 6.79 6.79-6.79 6.79zm14.29 14.29l-6.79-6.79 7-7h13.59zm15.71-14.29l.5-.5 6.29-6.29 6.79 6.79-6.79 6.79zm14.29 14.29l-6.79-6.79 7-7h13.59zm15.71-14.29l.5-.5 6.29-6.29 6.79 6.79-6.79 6.79zm14.29 14.29l-6.79-6.79 7-7h13.59zm15.71-14.29l.5-.5 6.29-6.29 6.79 6.79-6.79 6.79zm14.29 14.29l-6.79-6.79 7-7h13.59zm29.29-14.29l-6.79 6.79-6.79-6.79.5-.5 6.29-6.29zm-14.29-.71l-14.29-14.29 6.79-6.79 7.15 7.15 7.15 7.15zm0-15l-6.79-6.79 7-7h13.59zm.21-14.79l-7-7 6.79-6.79 13.79 13.79h-13.58zm-.57-14.84l-7.15 7.15-6.78-6.81 14.29-14.29 6.79 6.79zm14.65-14.66l-6.79 6.79-6.79-6.79.5-.5 6.29-6.29zm-14.29-.71l-14.29-14.29 6.79-6.79 7.15 7.15 7.15 7.15zm0-15l-6.79-6.79 7-7h13.59zm.21-14.79l-7-7 6.79-6.79 13.79 13.79h-13.58zm-.57-14.84l-7.15 7.15-6.78-6.81 14.29-14.29 6.79 6.79zm14.65-14.66l-6.79 6.79-6.79-6.79.5-.5 6.29-6.29zm-14.29-.71l-14.29-14.29 6.79-6.79 7.15 7.15 7.15 7.15zm0-15l-6.79-6.79 7-7h13.59zm.21-14.79l-7-7 6.79-6.79 13.79 13.79h-13.58zm-.57-14.84l-7.15 7.15-6.78-6.81 14.29-14.29 6.79 6.79zm14.65-14.66l-6.79 6.79-6.79-6.79.5-.5 6.29-6.29zm-14.29-.71l-14.29-14.29 6.79-6.79 7.14 7.16 7.15 7.15zm0-15l-6.79-6.79 7-7h13.59zm-7.5-21.09l6.79 6.8-6.79 6.79-6.79-6.79zm-30 0l6.79 6.8-6.79 6.79-6.79-6.79zm-30 0l6.79 6.8-6.79 6.79-6.79-6.79zm-30 0l6.79 6.8-6.79 6.79-6.79-6.79zm-30 0l6.79 6.8-6.79 6.79-6.79-6.79zm-36.79 6.8l6.79-6.79 6.79 6.79-6.79 6.79zm6.79 8.21l14.29 14.29-6.79 6.79-14.29-14.29zm-6.79 36.79l14.29-14.29 6.79 6.79-14.29 14.31zm0 15l6.79-6.79 6.79 6.79-6.79 6.79zm6.79 8.21l14.29 14.29-6.79 6.79-14.29-14.29zm-6.79 36.79l14.29-14.29 6.79 6.79-14.29 14.29zm0 15l6.79-6.79 6.79 6.79-6.79 6.79zm6.79 8.21l14.29 14.29-6.79 6.79-14.29-14.29zm-6.79 36.79l14.29-14.29 6.79 6.79-14.29 14.29zm6.79 8.21l6.79 6.79-6.79 6.79-6.79-6.79z"/><path class="b" d="M30 30h180v240h-180v-240z"/><path class="c" d="M210 36l-6-6h1.41l4.59 4.54v1.46zm-178.93-.39l5.61-5.61h1.41l-6.32 6.32 5.51 5.51 4.9-4.9a5.5 5.5 0 0 1 7.78 0l4.9 4.9 5.51-5.51-6.37-6.32h1.41l5.59 5.61 5.68-5.61h1.41l-6.32 6.32 5.51 5.51 4.9-4.9a5.5 5.5 0 0 1 7.78 0l4.9 4.9 5.51-5.51-6.37-6.32h1.41l5.59 5.61 5.68-5.61h1.41l-6.32 6.32 5.51 5.51 4.9-4.9a5.5 5.5 0 0 1 7.78 0l4.9 4.9 5.51-5.51-6.37-6.32h1.41l5.59 5.61 5.68-5.61h1.41l-6.32 6.32 5.51 5.51 4.9-4.9a5.5 5.5 0 0 1 7.78 0l4.9 4.9 5.51-5.51-6.37-6.32h1.41l5.59 5.61 5.68-5.61h1.41l-6.32 6.32 5.51 5.51 4.9-4.9a5.5 5.5 0 0 1 7.78 0l4.9 4.9 5.51-5.51-6.37-6.32h1.41l5.59 5.61 5.68-5.61h1.41l-6.32 6.32 5.51 5.51 4.9-4.9a5.5 5.5 0 0 1 7.78 0l4.9 4.9 5.14-5.15v1.41l-4.44 4.44 4.44 4.47v1.41l-5.15-5.15-4.85 4.88a5.51 5.51 0 0 1-7.78 0l-4.9-4.9-5.51 5.51 8.25 8.25h12l7.94-7.89v1.41l-7 7 7 7v1.48l-7.92-8h-12l-8.29 8.29 5.51 5.51 4.9-4.9a5.5 5.5 0 0 1 7.78 0l4.9 4.9 5.12-5.12v1.41l-4.44 4.44 4.44 4.47v1.41l-5.15-5.15-4.85 4.88a5.51 5.51 0 0 1-7.78 0l-4.9-4.9-5.51 5.51 8.25 8.25h12l7.94-7.89v1.41l-7 7 7 7v1.48l-7.92-8h-12l-8.29 8.29 5.51 5.51 4.9-4.9a5.5 5.5 0 0 1 7.78 0l4.9 4.9 5.12-5.12v1.41l-4.44 4.44 4.44 4.47v1.41l-5.15-5.15-4.85 4.88a5.51 5.51 0 0 1-7.78 0l-4.9-4.9-5.51 5.51 8.29 8.25h12l7.92-7.92v1.41l-7 7 7 7v1.51l-7.94-8h-12l-8.29 8.29 5.51 5.51 4.9-4.9a5.5 5.5 0 0 1 7.78 0l4.9 4.9 5.15-5.15v1.41l-4.44 4.44 4.41 4.5v1.41l-5.15-5.15-4.85 4.88a5.51 5.51 0 0 1-7.78 0l-4.9-4.9-5.51 5.51 8.29 8.25h12l7.92-7.92v1.41l-7 7 7 7v1.51l-7.94-8h-12l-8.29 8.29 5.51 5.51 4.9-4.9a5.5 5.5 0 0 1 7.78 0l4.9 4.9 5.15-5.15v1.41l-4.44 4.44 4.41 4.5v1.41l-5.15-5.15-4.85 4.88a5.51 5.51 0 0 1-7.78 0l-4.9-4.9-5.51 5.51 8.29 8.25h12l7.92-7.92v1.41l-7 7 7 7v1.51l-7.94-8h-12l-8.29 8.29 5.51 5.51 4.9-4.9a5.5 5.5 0 0 1 7.78 0l4.9 4.9 5.15-5.15v1.41l-4.44 4.44 4.41 4.5v1.41l-5.15-5.15-4.85 4.88a5.51 5.51 0 0 1-7.78 0l-4.9-4.9-5.51 5.51 8.29 8.25h12l7.92-7.92v1.41l-7 7 7 7v1.51l-7.94-8h-12l-8.29 8.29 5.51 5.51 4.9-4.9a5.5 5.5 0 0 1 7.78 0l4.9 4.9 5.15-5.15v1.41l-4.44 4.44 4.41 4.5v1.41l-5.15-5.15-4.85 4.88a5.51 5.51 0 0 1-7.78 0l-4.9-4.9-5.51 5.51 8.29 8.25h12l7.92-7.92v1.41l-7 7 7 7v1.51l-7.94-8h-12l-8.29 8.29 5.51 5.51 4.9-4.9a5.5 5.5 0 0 1 7.78 0l4.9 4.9 5.15-5.15v1.41l-4.44 4.44 4.41 4.5v1.41l-5.15-5.15-4.85 4.88a5.51 5.51 0 0 1-7.78 0l-4.9-4.9-5.51 5.51 8.29 8.25h12l7.92-7.92v1.41l-7 7 2.47 2.47h-1.49l-2-2h-12l-2 2h-1.41l2.47-2.47-8.06-8.04-8 8.08 2.47 2.47h-1.47l-2-2h-12l-2 2h-1.41l2.47-2.47-8.06-8.07-8 8.07 2.47 2.47h-1.47l-2-2h-12l-2 2h-1.41l2.47-2.47-8.06-8.07-8 8.07 2.47 2.47h-1.47l-2-2h-12l-2 2h-1.32l2.47-2.47-8.08-8.07-8.07 8.07 2.46 2.47h-1.46l-2-2h-12l-2 2h-1.32l2.47-2.47-8.08-8.07-8.07 8.07 2.46 2.47h-1.46l-2-2h-12l-2 2h-1.32l2.47-2.47-8.08-8.07-1.07 1.06v-1.41l.36-.36-.36-.36v-1.39l1.07 1 5.51-5.51-5.51-5.49-1.07 1.09v-1.41l.36-.36-.36-.32v-1.42l1.07 1.07 8.08-8.08-8.08-8.07-1.07 1v-1.41l.36-.36-.36-.34v-1.39l1.07 1 5.51-5.51-5.51-5.49-1.07 1.09v-1.41l.36-.36-.36-.32v-1.42l1.07 1.07 8.08-8.08-8.08-8.07-1.07 1v-1.41l.36-.36-.36-.34v-1.39l1.07 1 5.51-5.51-5.51-5.49-1.07 1.09v-1.41l.36-.36-.36-.32v-1.42l1.07 1.07 8.08-8.08-8.08-8.07-1.07 1v-1.41l.36-.36-.36-.34v-1.39l1.07 1 5.51-5.51-5.51-5.49-1.07 1.09v-1.41l.36-.36-.36-.32v-1.42l1.07 1.07 8.08-8.08-8.08-8.07-1.07 1v-1.41l.36-.36-.36-.34v-1.39l1.07 1 5.51-5.51-5.51-5.49-1.07 1.09v-1.41l.36-.36-.36-.32v-1.42l1.07 1.07 8.08-8.08-8.08-8.07-1.07 1v-1.41l.36-.36-.36-.34v-1.39l1.07 1 5.51-5.51-5.51-5.49-1.07 1.09v-1.41l.36-.36-.36-.32v-1.46l1.07 1.07 8.08-8.08-8.08-8.07-1.07 1.06v-1.41l.36-.36-.36-.36v-1.39l1.07 1 5.51-5.51-5.51-5.49-1.07 1.09v-1.41l.36-.36-.36-.32v-1.46l1.07 1.07 8.08-8.08-8.08-8.07-1.07 1.06v-1.41l.36-.36-.36-.36v-1.39l1.07 1 5.51-5.51-5.51-5.49-1.07 1.09v-1.41l.36-.36-.36-.32v-1.46zm.71 13.14l8.28 8.25h12l8.28-8.28-5.51-5.51-4.83 4.93a5.51 5.51 0 0 1-7.78 0l-4.9-4.9zm29.29.71l-8.07 8.07 8.08 8.08 8.08-8.08zm30 0l-8.07 8.07 8.08 8.08 8.08-8.08zm30 0l-8.07 8.07 8.08 8.08 8.08-8.08zm30 0l-8.07 8.07 8.08 8.08 8.08-8.08zm29.29-.71l-5.51-5.51-4.85 4.9a5.51 5.51 0 0 1-7.78 0l-4.9-4.9-5.51 5.51 8.25 8.25h12l8.28-8.28zm0 30l-5.51-5.51-4.85 4.9a5.51 5.51 0 0 1-7.78 0l-4.9-4.9-5.51 5.51 8.25 8.25h12l8.28-8.28zm0 30l-5.51-5.51-4.85 4.9a5.51 5.51 0 0 1-7.78 0l-4.9-4.9-5.51 5.51 8.29 8.25h12l8.28-8.28zm0 30l-5.51-5.51-4.85 4.9a5.51 5.51 0 0 1-7.78 0l-4.9-4.9-5.51 5.51 8.29 8.25h12l8.28-8.28zm0 30l-5.51-5.51-4.85 4.9a5.51 5.51 0 0 1-7.78 0l-4.9-4.9-5.51 5.51 8.29 8.25h12l8.28-8.28zm0 30l-5.51-5.51-4.85 4.9a5.51 5.51 0 0 1-7.78 0l-4.9-4.9-5.51 5.51 8.29 8.25h12l8.28-8.28zm0 30l-5.51-5.51-4.85 4.9a5.51 5.51 0 0 1-7.78 0l-4.9-4.9-5.51 5.51 8.29 8.25h12l8.28-8.28zm-5.51 23.08l5.51-5.51-8.28-8.32h-12l-8.29 8.29 5.51 5.51 4.9-4.9a5.5 5.5 0 0 1 7.78 0zm-5.6-4.19a4.5 4.5 0 0 0-6.36 0l-4.9 4.9 4.9 4.9a4.5 4.5 0 0 0 6.36 0l4.9-4.9zm-12.67 4.9l-5.51-5.54-5.51 5.51 5.51 5.51zm-11.72-.71l5.51-5.51-8.29-8.32h-12l-8.29 8.29 5.51 5.51 4.9-4.9a5.5 5.5 0 0 1 7.78 0zm-5.6-4.19a4.5 4.5 0 0 0-6.36 0l-4.9 4.9 4.9 4.9a4.5 4.5 0 0 0 6.36 0l4.9-4.9zm-24.4 4.19l5.51-5.51-8.29-8.32h-12l-8.29 8.29 5.51 5.51 4.9-4.9a5.5 5.5 0 0 1 7.78 0zm-5.6-4.19a4.5 4.5 0 0 0-6.36 0l-4.9 4.9 4.9 4.9a4.5 4.5 0 0 0 6.36 0l4.9-4.9zm-12.67 4.9l-5.52-5.54-5.51 5.51 5.51 5.49zm-11.72-.71l5.51-5.51-8.3-8.32h-12l-8.29 8.29 5.51 5.51 4.9-4.9a5.5 5.5 0 0 1 7.78 0zm-5.6-4.19a4.5 4.5 0 0 0-6.36 0l-4.9 4.9 4.9 4.9a4.5 4.5 0 0 0 6.36 0l4.9-4.9zm-26.27-40.11l8.08 8.08 8.08-8.08-8.08-8.07zm0-60l8.08 8.08 8.08-8.08-8.08-8.07zm0-60l8.08 8.08 8.08-8.08-8.08-8.07zm2.57-15l5.5 5.47 5.51-5.51-5.51-5.49zm6.22-6.22l5.51 5.51 4.9-4.9a5.5 5.5 0 0 1 7.78 0l4.9 4.9 5.51-5.51-8.31-8.31h-12zm23.78 6.22l5.5 5.47 5.51-5.51-5.51-5.49zm6.22-6.22l5.51 5.51 4.9-4.9a5.5 5.5 0 0 1 7.78 0l4.9 4.9 5.51-5.51-8.31-8.31h-12zm23.78 6.22l5.5 5.47 5.51-5.51-5.51-5.49zm6.22-6.22l5.51 5.51 4.9-4.9a5.5 5.5 0 0 1 7.78 0l4.9 4.9 5.51-5.51-8.31-8.31h-12zm23.78 6.22l5.5 5.47 5.51-5.51-5.51-5.49zm13.59 165l-8.08-8.07-8.08 8.07 8.08 8.08zm-30 0l-8.08-8.07-8.08 8.07 8.08 8.08zm-30 0l-8.08-8.07-8.08 8.07 8.08 8.08zm-29.1-.53h12l8.28-8.28-5.51-5.51-4.83 4.93a5.51 5.51 0 0 1-7.78 0l-4.9-4.9-5.51 5.51zm-2.78-163.76l-5.51 5.51 8.29 8.25h12l8.28-8.28-5.51-5.51-4.83 4.93a5.51 5.51 0 0 1-7.78 0zm5.6 4.19a4.5 4.5 0 0 0 6.36 0l4.9-4.9-4.9-4.9a4.5 4.5 0 0 0-6.36 0l-4.88 4.9zm18.18 2l-8.06 8.1 8.08 8.08 8.08-8.08zm6.22-6.22l-5.51 5.51 8.29 8.28h12l8.28-8.28-5.51-5.51-4.83 4.93a5.51 5.51 0 0 1-7.78 0zm5.6 4.19a4.5 4.5 0 0 0 6.36 0l4.9-4.9-4.9-4.9a4.5 4.5 0 0 0-6.36 0l-4.88 4.93zm18.18 2l-8.06 8.13 8.08 8.08 8.08-8.08zm6.22-6.22l-5.51 5.51 8.29 8.31h12l8.28-8.28-5.51-5.51-4.83 4.93a5.51 5.51 0 0 1-7.78 0zm5.6 4.19a4.5 4.5 0 0 0 6.36 0l4.9-4.9-4.9-4.9a4.5 4.5 0 0 0-6.36 0l-4.9 4.9zm17.47 31.32l-5.51-5.51-4.84 5a5.51 5.51 0 0 1-7.78 0l-4.9-4.9-5.51 5.51 8.29 8.21h12l8.28-8.28zm0 30l-5.51-5.51-4.84 5a5.51 5.51 0 0 1-7.78 0l-4.9-4.9-5.51 5.51 8.29 8.21h12l8.28-8.28zm0 30l-5.51-5.51-4.84 5a5.51 5.51 0 0 1-7.78 0l-4.9-4.9-5.51 5.51 8.29 8.21h12l8.28-8.28zm0 30l-5.51-5.51-4.84 5a5.51 5.51 0 0 1-7.78 0l-4.9-4.9-5.51 5.51 8.29 8.21h12l8.28-8.28zm-5.51 23.08l5.51-5.51-8.27-8.26h-12l-8.29 8.29 5.51 5.51 4.9-4.9a5.5 5.5 0 0 1 7.78 0zm-5.6-4.19a4.5 4.5 0 0 0-6.36 0l-4.9 4.9 4.9 4.9a4.5 4.5 0 0 0 6.36 0l4.9-4.9zm-12.67 4.9l-5.5-5.48-5.51 5.51 5.51 5.51zm-11.72-.71l5.51-5.51-8.28-8.26h-12l-8.29 8.29 5.51 5.51 4.9-4.9a5.5 5.5 0 0 1 7.78 0zm-5.6-4.19a4.5 4.5 0 0 0-6.36 0l-4.9 4.9 4.9 4.9a4.5 4.5 0 0 0 6.36 0l4.9-4.9zm-12.67 4.9l-5.51-5.48-5.51 5.51 5.51 5.49zm-11-120l5.49 5.52 5.51-5.51-5.51-5.49zm6.22-6.22l5.51 5.51 4.9-4.9a5.5 5.5 0 0 1 7.78 0l4.9 4.9 5.51-5.51-8.32-8.26h-12zm23.78 6.22l5.51 5.51 5.51-5.51-5.53-5.48zm13.59 105l-8.08-8.07-8.09 8.12 8.08 8.08zm-31.89-104.24l-5.51 5.51 8.29 8.28h12l8.28-8.28-5.51-5.51-4.83 4.9a5.51 5.51 0 0 1-7.78 0zm5.6 4.19a4.5 4.5 0 0 0 6.36 0l4.9-4.9-4.9-4.9a4.5 4.5 0 0 0-6.36 0l-4.9 4.9zm-11.1 18.89l5.51 5.51 4.9-4.9a5.5 5.5 0 0 1 7.78 0l4.9 4.9 5.51-5.51-8.3-8.32h-12zm6.22 6.21l4.9 4.9a4.5 4.5 0 0 0 6.36 0l4.9-4.9-4.9-4.9a4.5 4.5 0 0 0-6.36 0zm-.71.71l-5.51 5.51 8.29 8.28h12l8.28-8.28-5.51-5.51-4.84 4.9a5.51 5.51 0 0 1-7.78 0zm-5.51 23.08l5.51 5.51 4.9-4.9a5.5 5.5 0 0 1 7.78 0l4.9 4.9 5.51-5.51-8.3-8.32h-12zm6.22 6.21l4.9 4.9a4.5 4.5 0 0 0 6.36 0l4.9-4.9-4.9-4.9a4.5 4.5 0 0 0-6.36 0zm-.71.71l-5.51 5.51 8.29 8.28h12l8.28-8.28-5.51-5.51-4.84 4.9a5.51 5.51 0 0 1-7.78 0zm-5.51 23.08l5.51 5.51 4.9-4.9a5.5 5.5 0 0 1 7.78 0l4.9 4.9 5.51-5.51-8.3-8.32h-12zm6.22 6.21l4.9 4.9a4.5 4.5 0 0 0 6.36 0l4.9-4.9-4.9-4.9a4.5 4.5 0 0 0-6.36 0zm-.71.71l-5.51 5.51 8.29 8.28h12l8.28-8.28-5.51-5.51-4.84 4.9a5.51 5.51 0 0 1-7.78 0zm29.29-.71l-5.51-5.53-5.51 5.51 5.51 5.51zm2.57-15l-8.08-8.07-8.07 8.07 8.08 8.08zm-2.57-15l-5.51-5.53-5.51 5.51 5.51 5.51zm2.57-15l-8.08-8.07-8.07 8.07 8.08 8.08zm-2.57-15l-5.51-5.53-5.51 5.51 5.51 5.51zm2.57-15l-8.08-8.07-8.07 8.07 8.08 8.08zm-38.08-8.07l-8.07 8.07 8.08 8.08 8.08-8.08zm-5.51 23.08l5.51 5.46 5.51-5.51-5.51-5.49zm5.51 6.92l-8.07 8.07 8.08 8.08 8.08-8.08zm-5.51 23.08l5.51 5.46 5.51-5.51-5.51-5.49zm5.51 6.92l-8.07 8.07 8.08 8.08 8.08-8.08zm-5.51 23.08l5.51 5.46 5.51-5.51-5.51-5.49zm5.51 6.92l-8.07 8.07 8.08 8.08 8.08-8.08zm53.08-6.92l-4.9-4.9a4.5 4.5 0 0 0-6.36 0l-4.9 4.9 4.9 4.9a4.5 4.5 0 0 0 6.36 0zm.71-.71l5.51-5.51-8.29-8.32h-12l-8.29 8.29 5.51 5.51 4.9-4.9a5.5 5.5 0 0 1 7.78 0zm-.71-29.29l-4.9-4.9a4.5 4.5 0 0 0-6.36 0l-4.9 4.9 4.9 4.9a4.5 4.5 0 0 0 6.36 0zm.71-.71l5.51-5.51-8.29-8.32h-12l-8.29 8.29 5.51 5.51 4.9-4.9a5.5 5.5 0 0 1 7.78 0zm-.71-29.29l-4.9-4.9a4.5 4.5 0 0 0-6.36 0l-4.9 4.9 4.9 4.9a4.5 4.5 0 0 0 6.36 0zm.71-.71l5.51-5.51-8.29-8.32h-12l-8.29 8.29 5.51 5.51 4.9-4.9a5.5 5.5 0 0 1 7.78 0zm-.71-29.29l-4.9-4.9a4.5 4.5 0 0 0-6.36 0l-4.9 4.9 4.9 4.9a4.5 4.5 0 0 0 6.36 0zm.71-.71l5.51-5.51-8.29-8.32h-12l-8.29 8.29 5.51 5.51 4.9-4.9a5.5 5.5 0 0 1 7.78 0zm-83.08-5.51l5.51 5.51 4.9-4.9a5.5 5.5 0 0 1 7.78 0l4.9 4.9 5.51-5.51-8.3-8.32h-12zm6.22 6.21l4.9 4.9a4.5 4.5 0 0 0 6.36 0l4.9-4.9-4.9-4.9a4.5 4.5 0 0 0-6.36 0zm-.71.71l-5.51 5.51 8.28 8.25h12l8.28-8.28-5.51-5.51-4.83 4.93a5.51 5.51 0 0 1-7.78 0zm-5.51 23.08l5.51 5.51 4.9-4.9a5.5 5.5 0 0 1 7.78 0l4.9 4.9 5.51-5.51-8.3-8.32h-12zm6.22 6.21l4.9 4.9a4.5 4.5 0 0 0 6.36 0l4.9-4.9-4.9-4.9a4.5 4.5 0 0 0-6.36 0zm-.71.71l-5.51 5.51 8.28 8.25h12l8.28-8.28-5.51-5.51-4.83 4.93a5.51 5.51 0 0 1-7.78 0zm-5.51 23.08l5.51 5.51 4.9-4.9a5.5 5.5 0 0 1 7.78 0l4.9 4.9 5.51-5.51-8.3-8.32h-12zm6.22 6.21l4.9 4.9a4.5 4.5 0 0 0 6.36 0l4.9-4.9-4.9-4.9a4.5 4.5 0 0 0-6.36 0zm-.71.71l-5.51 5.51 8.28 8.25h12l8.28-8.28-5.51-5.51-4.83 4.93a5.51 5.51 0 0 1-7.78 0zm-5.51 23.08l5.51 5.51 4.9-4.9a5.5 5.5 0 0 1 7.78 0l4.9 4.9 5.51-5.51-8.3-8.32h-12zm6.22 6.21l4.9 4.9a4.5 4.5 0 0 0 6.36 0l4.9-4.9-4.9-4.9a4.5 4.5 0 0 0-6.36 0zm-.71.71l-5.51 5.51 8.28 8.25h12l8.28-8.28-5.51-5.51-4.83 4.93a5.51 5.51 0 0 1-7.78 0zm-5.51 23.08l5.51 5.51 4.9-4.9a5.5 5.5 0 0 1 7.78 0l4.9 4.9 5.51-5.51-8.3-8.32h-12zm6.22 6.21l4.9 4.9a4.5 4.5 0 0 0 6.36 0l4.9-4.9-4.9-4.9a4.5 4.5 0 0 0-6.36 0zm32.06 14.47h12l8.28-8.28-5.51-5.51-4.83 4.93a5.51 5.51 0 0 1-7.78 0l-4.9-4.9-5.51 5.51zm30 0h12l8.28-8.28-5.51-5.51-4.83 4.93a5.51 5.51 0 0 1-7.78 0l-4.9-4.9-5.51 5.51zm26.51-14.5l-5.5-5.5-5.51 5.51 5.51 5.51zm2.57-15l-8.08-8.07-8.06 8.1 8.08 8.08zm-2.57-15l-5.5-5.5-5.51 5.51 5.51 5.51zm2.57-15l-8.08-8.07-8.06 8.1 8.08 8.08zm-2.57-15l-5.5-5.5-5.51 5.51 5.51 5.51zm2.57-15l-8.08-8.07-8.06 8.1 8.08 8.08zm-2.57-15l-5.5-5.5-5.51 5.51 5.51 5.51zm2.57-15l-8.08-8.07-8.06 8.1 8.08 8.08zm-2.57-15l-5.5-5.5-5.51 5.51 5.51 5.51zm2.57-15l-8.08-8.07-8.06 8.1 8.08 8.08zm-103.59 15l5.52 5.5 5.51-5.51-5.51-5.49zm5.51 6.92l-8.06 8.11 8.08 8.08 8.08-8.08zm-5.51 23.08l5.52 5.5 5.51-5.51-5.51-5.49zm0 30l5.52 5.5 5.51-5.51-5.51-5.49zm5.51 6.92l-8.06 8.11 8.08 8.08 8.08-8.08zm-5.51 23.08l5.52 5.5 5.51-5.51-5.51-5.49zm0 30l5.52 5.5 5.51-5.51-5.51-5.49zm5.51 6.92l-8.06 8.11 8.08 8.08 8.08-8.08zm-5.51 23.08l5.52 5.5 5.51-5.51-5.51-5.49zm60 0l5.51 5.51 5.51-5.51-5.5-5.5zm58.59-30l-4.9-4.9a4.5 4.5 0 0 0-6.36 0l-4.9 4.9 4.9 4.9a4.5 4.5 0 0 0 6.36 0zm.71-.71l5.51-5.51-8.28-8.28h-12l-8.29 8.29 5.51 5.51 4.9-4.9a5.5 5.5 0 0 1 7.78 0zm-.71-29.29l-4.9-4.9a4.5 4.5 0 0 0-6.36 0l-4.9 4.9 4.9 4.9a4.5 4.5 0 0 0 6.36 0zm.71-.71l5.51-5.51-8.28-8.28h-12l-8.29 8.29 5.51 5.51 4.9-4.9a5.5 5.5 0 0 1 7.78 0zm-.71-29.29l-4.9-4.9a4.5 4.5 0 0 0-6.36 0l-4.9 4.9 4.9 4.9a4.5 4.5 0 0 0 6.36 0zm.71-.71l5.51-5.51-8.28-8.28h-12l-8.29 8.29 5.51 5.51 4.9-4.9a5.5 5.5 0 0 1 7.78 0zm-.71-29.29l-4.9-4.9a4.5 4.5 0 0 0-6.36 0l-4.9 4.9 4.9 4.9a4.5 4.5 0 0 0 6.36 0zm.71-.71l5.51-5.51-8.28-8.28h-12l-8.29 8.29 5.51 5.51 4.9-4.9a5.5 5.5 0 0 1 7.78 0zm-.71-29.29l-4.9-4.9a4.5 4.5 0 0 0-6.36 0l-4.9 4.9 4.9 4.9a4.5 4.5 0 0 0 6.36 0zm.71-.71l5.51-5.51-8.28-8.28h-12l-8.29 8.29 5.51 5.51 4.9-4.9a5.5 5.5 0 0 1 7.78 0zm-.71-29.29l-4.9-4.9a4.5 4.5 0 0 0-6.36 0l-4.88 4.9 4.9 4.9a4.5 4.5 0 0 0 6.36 0zm.71-.71l5.51-5.51-8.28-8.28h-12l-8.29 8.29 5.51 5.51 4.9-4.9a5.5 5.5 0 0 1 7.78 0zm-24.49-23l-5.51-5.51-4.85 4.86a5.51 5.51 0 0 1-7.78 0l-4.9-4.9-5.51 5.51 8.25 8.25h12l8.28-8.28zm-30 0l-5.51-5.51-4.85 4.86a5.51 5.51 0 0 1-7.78 0l-4.9-4.9-5.51 5.51 8.25 8.25h12l8.28-8.28zm-30 0l-5.51-5.51-4.85 4.86a5.51 5.51 0 0 1-7.78 0l-4.9-4.9-5.51 5.51 8.25 8.25h12l8.28-8.28zm-53.08 23.04l4.9-4.9a5.5 5.5 0 0 1 7.78 0l4.9 4.9 5.51-5.51-8.29-8.32h-12l-8.29 8.29zm12-4.19a4.5 4.5 0 0 0-6.36 0l-4.92 4.89 4.9 4.9a4.5 4.5 0 0 0 6.36 0l4.9-4.9zm-17.51 11.11l8.29 8.25h12l8.28-8.28-5.51-5.51-4.83 4.93a5.51 5.51 0 0 1-7.78 0l-4.9-4.9zm5.51 23.08l4.9-4.9a5.5 5.5 0 0 1 7.78 0l4.9 4.9 5.51-5.51-8.29-8.32h-12l-8.29 8.29zm12-4.19a4.5 4.5 0 0 0-6.36 0l-4.9 4.9 4.9 4.9a4.5 4.5 0 0 0 6.36 0l4.9-4.9zm-17.51 11.11l8.29 8.25h12l8.28-8.28-5.51-5.51-4.83 4.93a5.51 5.51 0 0 1-7.78 0l-4.9-4.9zm5.51 23.08l4.9-4.9a5.5 5.5 0 0 1 7.78 0l4.9 4.9 5.51-5.51-8.29-8.32h-12l-8.29 8.29zm12-4.19a4.5 4.5 0 0 0-6.36 0l-4.9 4.9 4.9 4.9a4.5 4.5 0 0 0 6.36 0l4.9-4.9zm-17.51 11.11l8.29 8.25h12l8.28-8.28-5.51-5.51-4.83 4.93a5.51 5.51 0 0 1-7.78 0l-4.9-4.9zm5.51 23.08l4.9-4.9a5.5 5.5 0 0 1 7.78 0l4.9 4.9 5.51-5.51-8.29-8.32h-12l-8.29 8.29zm12-4.19a4.5 4.5 0 0 0-6.36 0l-4.9 4.9 4.9 4.9a4.5 4.5 0 0 0 6.36 0l4.9-4.9zm-17.51 11.11l8.29 8.25h12l8.28-8.28-5.51-5.51-4.83 4.93a5.51 5.51 0 0 1-7.78 0l-4.9-4.9zm5.51 23.08l4.9-4.9a5.5 5.5 0 0 1 7.78 0l4.9 4.9 5.51-5.51-8.29-8.32h-12l-8.29 8.29zm12-4.19a4.5 4.5 0 0 0-6.36 0l-4.9 4.9 4.9 4.9a4.5 4.5 0 0 0 6.36 0l4.9-4.9zm-17.51 11.11l8.29 8.25h12l8.28-8.28-5.51-5.51-4.83 4.93a5.51 5.51 0 0 1-7.78 0l-4.9-4.9zm5.51 23.08l4.9-4.9a5.5 5.5 0 0 1 7.78 0l4.9 4.9 5.51-5.51-8.29-8.32h-12l-8.29 8.29zm12-4.19a4.5 4.5 0 0 0-6.36 0l-4.9 4.9 4.9 4.9a4.5 4.5 0 0 0 6.36 0l4.9-4.9zm-17.51 11.11l8.29 8.25h12l8.28-8.28-5.51-5.51-4.83 4.93a5.51 5.51 0 0 1-7.78 0l-4.9-4.9zm5.51 23.08l4.9-4.9a5.5 5.5 0 0 1 7.78 0l4.9 4.9 5.51-5.51-8.29-8.32h-12l-8.29 8.29zm12-4.19a4.5 4.5 0 0 0-6.36 0l-4.9 4.9 4.9 4.9a4.5 4.5 0 0 0 6.36 0l4.9-4.9zm11.11 11.11l-5.51-5.51-4.88 4.9a5.51 5.51 0 0 1-7.78 0l-4.9-4.9-5.51 5.51 8.25 8.25h12zm30 0l-5.51-5.51-4.88 4.9a5.51 5.51 0 0 1-7.78 0l-4.9-4.9-5.51 5.51 8.25 8.25h12zm30 0l-5.51-5.51-4.88 4.9a5.51 5.51 0 0 1-7.78 0l-4.9-4.9-5.51 5.51 8.29 8.25h12zm30 0l-5.51-5.51-4.88 4.9a5.51 5.51 0 0 1-7.78 0l-4.9-4.9-5.51 5.51 8.29 8.25h12zm30 0l-5.51-5.51-4.88 4.9a5.51 5.51 0 0 1-7.78 0l-4.9-4.9-5.51 5.51 8.29 8.25h12zm7.63-6.22l4.9 4.9a4.5 4.5 0 0 0 6.36 0l4.9-4.9-4.9-4.9a4.5 4.5 0 0 0-6.36 0zm-6.95-5.53l-5.51 5.51 5.51 5.51 5.51-5.51zm0-17.57l-8.07 8.1 8.08 8.08 8.08-8.08zm6.92-6.92l4.9 4.9a4.5 4.5 0 0 0 6.36 0l4.9-4.9-4.9-4.9a4.5 4.5 0 0 0-6.36 0zm-6.92-5.51l-5.51 5.51 5.51 5.51 5.51-5.51zm0-17.57l-8.07 8.1 8.08 8.08 8.08-8.08zm6.92-6.92l4.9 4.9a4.5 4.5 0 0 0 6.36 0l4.9-4.9-4.9-4.9a4.5 4.5 0 0 0-6.36 0zm-6.92-5.51l-5.51 5.51 5.51 5.51 5.51-5.51zm0-17.57l-8.07 8.1 8.08 8.08 8.08-8.08zm6.92-6.92l4.9 4.9a4.5 4.5 0 0 0 6.36 0l4.9-4.9-4.9-4.9a4.5 4.5 0 0 0-6.36 0zm-6.92-5.51l-5.51 5.51 5.51 5.51 5.51-5.51zm0-17.57l-8.07 8.1 8.08 8.08 8.08-8.08zm6.92-6.92l4.9 4.9a4.5 4.5 0 0 0 6.36 0l4.9-4.9-4.9-4.9a4.5 4.5 0 0 0-6.36 0zm-6.92-5.51l-5.51 5.51 5.51 5.51 5.51-5.51zm0-17.57l-8.07 8.1 8.08 8.08 8.08-8.08zm6.92-6.92l4.9 4.9a4.5 4.5 0 0 0 6.36 0l4.9-4.9-4.9-4.9a4.5 4.5 0 0 0-6.36 0zm-6.92-5.51l-5.51 5.51 5.51 5.51 5.51-5.51zm0-17.57l-8.07 8.1 8.08 8.08 8.08-8.08zm6.93-6.9l4.9 4.9a4.5 4.5 0 0 0 6.36 0l4.9-4.9-4.9-4.9a4.5 4.5 0 0 0-6.36 0zm-6.93-5.53l-5.51 5.51 5.51 5.49 5.51-5.51zm0-17.57l-8.07 8.1 8.08 8.08 8.08-8.08zm6.93-6.9l4.9 4.9a4.5 4.5 0 0 0 6.36 0l4.9-4.9-4.9-4.9a4.5 4.5 0 0 0-6.36 0zm-12.43 0l5.5 5.47 5.51-5.51-5.51-5.49zm-17.57 0l4.9 4.9a4.5 4.5 0 0 0 6.36 0l4.9-4.9-4.9-4.9a4.5 4.5 0 0 0-6.36 0zm-12.43 0l5.5 5.47 5.51-5.51-5.51-5.49zm-17.57 0l4.9 4.9a4.5 4.5 0 0 0 6.36 0l4.9-4.9-4.9-4.9a4.5 4.5 0 0 0-6.36 0zm-12.43 0l5.5 5.47 5.51-5.51-5.51-5.49zm-17.57 0l4.9 4.9a4.5 4.5 0 0 0 6.36 0l4.9-4.9-4.9-4.9a4.5 4.5 0 0 0-6.36 0zm-12.43 0l5.5 5.47 5.51-5.51-5.51-5.49zm-17.57 0l4.9 4.9a4.5 4.5 0 0 0 6.36 0l4.9-4.9-4.9-4.9a4.5 4.5 0 0 0-6.36 0zm-12.43 0l5.5 5.47 5.51-5.51-5.51-5.49zm-17.57 0l4.9 4.9a4.5 4.5 0 0 0 6.36 0l4.9-4.9-4.9-4.9a4.5 4.5 0 0 0-6.36 0zM838.73 267.14h-1a16 16 0 0 0 .27 2.86h1a15.15 15.15 0 0 1-.27-2.86zm15.24 0a15.93 15.93 0 0 1-.27 2.86h1a17 17 0 0 0 .26-2.86h-1zm7.36-52.64v-1a17 17 0 0 0-8.92 2.57 16.82 16.82 0 0 0 2.56-8.93h-1a15.84 15.84 0 0 1-4.77 11.37l-2.86 2.87-2.86-2.87a16.14 16.14 0 0 1-4.75-11.38h-1a17 17 0 0 0 2.58 8.94 17 17 0 0 0-9-2.58 18.56 18.56 0 0 0-3.26.32v1a16 16 0 0 1 14.7 4.41l2.86 2.86-2.87 2.92a16.08 16.08 0 0 1-14.7 4.41v1a16.76 16.76 0 0 0 3.26.32 17.1 17.1 0 0 0 9-2.55 17 17 0 0 0 0 17.93 17 17 0 0 0-9-2.57 16.76 16.76 0 0 0-3.26.32v1a16.08 16.08 0 0 1 14.7 4.41l2.86 2.86-2.86 2.87a16.08 16.08 0 0 1-14.7 4.41v1a17.66 17.66 0 0 0 3.26.32 17 17 0 0 0 9-2.56 16.87 16.87 0 0 0-2.55 8.93h1a15.9 15.9 0 0 1 4.75-11.38l2.86-2.86 2.86 2.86a16.07 16.07 0 0 1 4.78 11.42h1a17.05 17.05 0 0 0-2.57-8.91 16.88 16.88 0 0 0 8.93 2.56v-1a15.88 15.88 0 0 1-11.36-4.79l-2.86-2.86 2.86-2.86a15.9 15.9 0 0 1 11.38-4.75v-1a16.9 16.9 0 0 0-8.91 2.53 17 17 0 0 0 0-17.88 16.87 16.87 0 0 0 8.93 2.55v-1a15.91 15.91 0 0 1-11.4-4.73l-2.86-2.86 2.86-2.86a16.11 16.11 0 0 1 11.38-4.78zm-12.12 11.22a16.12 16.12 0 0 1 4.79 11.48 15.93 15.93 0 0 1-4.75 11.35l-2.87 2.86-2.86-2.86a16.12 16.12 0 0 1-4.75-11.48 15.92 15.92 0 0 1 4.75-11.35l2.86-2.86zm12.12-71.23v-1a17.06 17.06 0 0 0-8.92 2.57 16.79 16.79 0 0 0 2.56-8.93h-1a15.88 15.88 0 0 1-4.77 11.38l-2.86 2.86-2.86-2.86a16.17 16.17 0 0 1-4.75-11.38h-1a17 17 0 0 0 2.58 8.95 16.93 16.93 0 0 0-12.31-2.26v1a16.08 16.08 0 0 1 14.7 4.41l2.86 2.86-2.82 2.91a16.08 16.08 0 0 1-14.7 4.41v1a17.57 17.57 0 0 0 3.26.32 17 17 0 0 0 9-2.56 17 17 0 0 0 0 17.93 17.07 17.07 0 0 0-9-2.57 17.58 17.58 0 0 0-3.26.33v1a16.77 16.77 0 0 1 3.26-.35 16.11 16.11 0 0 1 11.44 4.75l2.86 2.87-2.86 2.87a16.08 16.08 0 0 1-14.7 4.41v1a16.84 16.84 0 0 0 3.26.32 17.07 17.07 0 0 0 9-2.55 16.86 16.86 0 0 0-2.55 8.92h1a15.86 15.86 0 0 1 4.75-11.37l2.86-2.87 2.86 2.87a16.07 16.07 0 0 1 4.78 11.4h1a17.09 17.09 0 0 0-2.57-8.92 16.79 16.79 0 0 0 8.93 2.56v-1a15.91 15.91 0 0 1-11.36-4.77l-2.86-2.86 2.86-2.87a15.94 15.94 0 0 1 11.38-4.75v-1a16.85 16.85 0 0 0-8.9 2.54 17 17 0 0 0 0-17.89 16.87 16.87 0 0 0 8.93 2.55v-1a15.94 15.94 0 0 1-11.41-4.72l-2.86-2.87 2.86-2.85a16.07 16.07 0 0 1 11.38-4.79zm-12.12 11.23a16.09 16.09 0 0 1 .08 22.75l-.08.08-2.87 2.86-2.86-2.86a16.13 16.13 0 0 1-4.75-11.49 15.91 15.91 0 0 1 4.75-11.34l2.86-2.86zm12.12-71.23v-1a17 17 0 0 0-8.92 2.57 16.79 16.79 0 0 0 2.59-8.93h-1a15.84 15.84 0 0 1-4.8 11.37l-2.86 2.87-2.86-2.87a16.13 16.13 0 0 1-4.75-11.37h-1a17 17 0 0 0 2.58 8.94 17 17 0 0 0-9-2.58 17.66 17.66 0 0 0-3.26.33v1a16.78 16.78 0 0 1 3.26-.35 16.08 16.08 0 0 1 11.44 4.76l2.86 2.86-2.87 2.91a16.08 16.08 0 0 1-14.7 4.41v1a16.76 16.76 0 0 0 3.26.32 17.1 17.1 0 0 0 9-2.55 17 17 0 0 0 0 17.93 17.07 17.07 0 0 0-9-2.57 16.76 16.76 0 0 0-3.26.32v1a16.08 16.08 0 0 1 14.7 4.41l2.86 2.86-2.86 2.87a16.08 16.08 0 0 1-14.7 4.41v1a17 17 0 0 0 12.26-2.24 16.87 16.87 0 0 0-2.55 8.93h1a15.9 15.9 0 0 1 4.75-11.38l2.86-2.86 2.86 2.86a16.07 16.07 0 0 1 4.78 11.41h1a17.06 17.06 0 0 0-2.57-8.92 16.88 16.88 0 0 0 8.93 2.56v-1a15.88 15.88 0 0 1-11.36-4.77l-2.86-2.86 2.86-2.86a15.9 15.9 0 0 1 11.38-4.75v-1a16.9 16.9 0 0 0-8.91 2.53 17 17 0 0 0 0-17.88 16.87 16.87 0 0 0 8.93 2.55v-1a15.91 15.91 0 0 1-11.4-4.73l-2.86-2.86 2.86-2.86a16.11 16.11 0 0 1 11.38-4.79zm-12.12 11.22a16.12 16.12 0 0 1 4.79 11.48 15.92 15.92 0 0 1-4.75 11.35l-2.86 2.86-2.87-2.86a16.12 16.12 0 0 1-4.75-11.48 15.92 15.92 0 0 1 4.75-11.35l2.86-2.86zm12.12-71.23v-1a17.06 17.06 0 0 0-8.92 2.52 16.8 16.8 0 0 0 2.3-6h-1a15.88 15.88 0 0 1-4.5 8.5l-2.86 2.86-2.86-2.86a16.18 16.18 0 0 1-4.49-8.5h-1a17 17 0 0 0 2.31 6.07 16.93 16.93 0 0 0-12.31-2.26v1a16.08 16.08 0 0 1 14.7 4.41l2.86 2.87-2.82 2.91a16.08 16.08 0 0 1-14.74 4.41v1a17.57 17.57 0 0 0 3.26.32 17 17 0 0 0 9-2.56 17 17 0 0 0 0 17.93 17.07 17.07 0 0 0-9-2.57 17.58 17.58 0 0 0-3.26.33v1a16.77 16.77 0 0 1 3.26-.35 16.11 16.11 0 0 1 11.44 4.75l2.86 2.87-2.82 2.87a16.08 16.08 0 0 1-11.44 4.76 16.77 16.77 0 0 1-3.26-.35v1a17.66 17.66 0 0 0 3.26.33 17.08 17.08 0 0 0 9-2.56 16.86 16.86 0 0 0-2.55 8.92h1a15.86 15.86 0 0 1 4.75-11.37l2.86-2.87 2.86 2.87a16.07 16.07 0 0 1 4.78 11.39h1a17.12 17.12 0 0 0-2.57-8.92 16.79 16.79 0 0 0 8.93 2.56v-1a15.91 15.91 0 0 1-11.36-4.76l-2.86-2.86 2.86-2.87a15.94 15.94 0 0 1 11.38-4.75v-1a16.91 16.91 0 0 0-8.91 2.54 17 17 0 0 0 0-17.89 16.87 16.87 0 0 0 8.93 2.55v-1a15.94 15.94 0 0 1-11.4-4.72l-2.86-2.86 2.86-2.86a16.07 16.07 0 0 1 11.38-4.8zm-12.12 11.23a16.09 16.09 0 0 1 .08 22.75l-.08.08-2.86 2.86-2.87-2.86a16.13 16.13 0 0 1-4.75-11.54 15.91 15.91 0 0 1 4.75-11.34l2.86-2.86zm49.52 221.43h-1a18.1 18.1 0 0 0 .27 2.86h1a17 17 0 0 1-.27-2.86zm-14.8 0a16.9 16.9 0 0 1-.26 2.86h1a18.1 18.1 0 0 0 .25-2.86h-1zm30 0a16.9 16.9 0 0 1-.26 2.86h1a18.1 18.1 0 0 0 .25-2.86h-1zm-45.28 0h-1a18.1 18.1 0 0 0 .35 2.86h1a16.9 16.9 0 0 1-.31-2.86zm52.64-52.64v-1a17 17 0 0 0-8.92 2.57 16.82 16.82 0 0 0 2.56-8.93h-1a15.87 15.87 0 0 1-4.76 11.37l-2.86 2.87-2.86-2.87a16.11 16.11 0 0 1-4.76-11.38h-1a17.17 17.17 0 0 0 2.58 8.94 17 17 0 0 0-9-2.58 17 17 0 0 0-8.87 2.54 16.81 16.81 0 0 0 2.54-8.9h-1a15.93 15.93 0 0 1-4.75 11.37l-2.87 2.87-2.85-2.87a16.07 16.07 0 0 1-4.77-11.38h-1a17 17 0 0 0 2.57 8.91 16.87 16.87 0 0 0-8.93-2.55v1a15.91 15.91 0 0 1 11.38 4.76l2.86 2.86-2.82 2.9a16.12 16.12 0 0 1-11.38 4.76v1a17.06 17.06 0 0 0 8.92-2.57 17 17 0 0 0 0 18 17 17 0 0 0-9-2.58v1a16.13 16.13 0 0 1 11.38 4.75l2.86 2.86-2.83 2.78a16.12 16.12 0 0 1-11.38 4.77v1a17.06 17.06 0 0 0 8.92-2.57 16.79 16.79 0 0 0-2.56 8.93h1a15.86 15.86 0 0 1 4.77-11.38l2.85-2.86 2.87 2.86a16.14 16.14 0 0 1 4.75 11.38h1a17 17 0 0 0-2.57-8.92 16.87 16.87 0 0 0 8.9 2.56 17 17 0 0 0 9-2.56 16.87 16.87 0 0 0-2.55 8.93h1a15.91 15.91 0 0 1 4.76-11.38l2.86-2.86 2.86 2.86a16.11 16.11 0 0 1 4.81 11.38h1a17 17 0 0 0-2.57-8.91 16.88 16.88 0 0 0 8.93 2.56v-1a15.84 15.84 0 0 1-11.36-4.79l-2.87-2.86 2.87-2.86a15.86 15.86 0 0 1 11.37-4.75v-1a16.86 16.86 0 0 0-8.9 2.53 16.83 16.83 0 0 0 2.53-8.86 17 17 0 0 0-2.55-9 16.78 16.78 0 0 0 8.92 2.56v-1a15.87 15.87 0 0 1-11.37-4.76l-2.87-2.86 2.87-2.86a16.1 16.1 0 0 1 11.33-4.78zm-41.41 4.75a15.92 15.92 0 0 1 11.35-4.75 16.08 16.08 0 0 1 11.44 4.76l2.86 2.86-2.78 2.88a16.07 16.07 0 0 1-11.44 4.75 15.87 15.87 0 0 1-11.39-4.75l-2.86-2.86zm20.36 8.93a16.9 16.9 0 0 0-2.55 8.88 17.12 17.12 0 0 0 2.57 9 16.94 16.94 0 0 0-9-2.57 17 17 0 0 0-8.89 2.54 17 17 0 0 0 0-17.88 16.82 16.82 0 0 0 8.86 2.53 17.06 17.06 0 0 0 9-2.5zm-26.83 20.37a16.09 16.09 0 0 1-.08-22.75l.08-.08 2.86-2.86 2.87 2.86a15.92 15.92 0 0 1 4.75 11.35 16.12 16.12 0 0 1-4.75 11.48l-2.86 2.86zm29.3 6.47a16.11 16.11 0 0 1-11.44 4.75 15.92 15.92 0 0 1-11.35-4.77l-2.86-2.87 2.86-2.86a15.91 15.91 0 0 1 11.34-4.75 16.07 16.07 0 0 1 11.44 4.75l2.86 2.86zm6.46-29.3a16.09 16.09 0 0 1 .08 22.75l-.08.08-2.86 2.86-2.86-2.86a16.07 16.07 0 0 1 0-22.83l2.86-2.86zm12.12-71.23v-1a17.11 17.11 0 0 0-8.92 2.57 16.79 16.79 0 0 0 2.56-8.93h-1a15.91 15.91 0 0 1-4.76 11.38l-2.86 2.86-2.86-2.86a16.14 16.14 0 0 1-4.76-11.38h-1a17.2 17.2 0 0 0 2.58 8.95 17 17 0 0 0-9-2.58 17 17 0 0 0-8.87 2.53 16.76 16.76 0 0 0 2.54-8.9h-1a15.94 15.94 0 0 1-4.75 11.38l-2.87 2.86-2.85-2.86a16.07 16.07 0 0 1-4.77-11.38h-1a17.06 17.06 0 0 0 2.57 8.92 16.79 16.79 0 0 0-8.93-2.56v1a15.88 15.88 0 0 1 11.38 4.77l2.86 2.85-2.87 2.89a16.16 16.16 0 0 1-11.38 4.75v1a17 17 0 0 0 8.92-2.57 17 17 0 0 0 0 18 17.2 17.2 0 0 0-9-2.58v1a16.12 16.12 0 0 1 11.38 4.76l2.86 2.86-2.78 2.78a16.11 16.11 0 0 1-11.38 4.76v1a17 17 0 0 0 8.92-2.57 16.79 16.79 0 0 0-2.56 8.93h1a15.88 15.88 0 0 1 4.77-11.38l2.85-2.86 2.87 2.86a16.17 16.17 0 0 1 4.75 11.38h1a17 17 0 0 0-2.57-8.92 16.77 16.77 0 0 0 8.9 2.55 17 17 0 0 0 9-2.55 16.86 16.86 0 0 0-2.55 8.92h1a15.87 15.87 0 0 1 4.76-11.37l2.86-2.87 2.86 2.87a16.1 16.1 0 0 1 4.81 11.38h1a17 17 0 0 0-2.57-8.92 16.79 16.79 0 0 0 8.93 2.56v-1a15.87 15.87 0 0 1-11.36-4.77l-2.87-2.86 2.87-2.87a15.9 15.9 0 0 1 11.37-4.75v-1a16.87 16.87 0 0 0-8.9 2.54 16.83 16.83 0 0 0 2.53-8.86 17 17 0 0 0-2.55-9 16.86 16.86 0 0 0 8.92 2.55v-1a15.9 15.9 0 0 1-11.37-4.75l-2.87-2.87 2.87-2.85a16.07 16.07 0 0 1 11.33-4.79zm-41.41 4.76a15.92 15.92 0 0 1 11.35-4.75 16.11 16.11 0 0 1 11.44 4.75l2.86 2.86-2.78 2.89a16.11 16.11 0 0 1-11.44 4.75 15.91 15.91 0 0 1-11.39-4.75l-2.86-2.87zm20.36 8.92a16.94 16.94 0 0 0-2.55 8.89 17.11 17.11 0 0 0 2.57 9 17 17 0 0 0-9-2.57 16.94 16.94 0 0 0-8.89 2.55 17 17 0 0 0 0-17.88 16.91 16.91 0 0 0 8.86 2.53 17 17 0 0 0 9-2.52zm-26.83 20.38a16.13 16.13 0 0 1-4.75-11.49 15.91 15.91 0 0 1 4.75-11.34l2.86-2.86 2.87 2.86a15.91 15.91 0 0 1 4.75 11.34 16.13 16.13 0 0 1-4.75 11.49l-2.87 2.86zm29.3 6.46a16.07 16.07 0 0 1-11.44 4.75 15.88 15.88 0 0 1-11.35-4.76l-2.86-2.86 2.86-2.87a16 16 0 0 1 11.34-4.75 16.11 16.11 0 0 1 11.44 4.75l2.86 2.87zm6.46-29.29a16.09 16.09 0 0 1 .08 22.75l-.08.08-2.86 2.86-2.86-2.86a16.09 16.09 0 0 1-4.76-11.49 15.92 15.92 0 0 1 4.76-11.34l2.86-2.86zm12.12-71.23v-1a17 17 0 0 0-8.92 2.57 16.79 16.79 0 0 0 2.63-8.93h-1a15.87 15.87 0 0 1-4.76 11.37l-2.86 2.87-2.86-2.87a16.1 16.1 0 0 1-4.76-11.37h-1a17.17 17.17 0 0 0 2.58 8.94 17 17 0 0 0-9-2.58 17 17 0 0 0-8.9 2.51 16.78 16.78 0 0 0 2.54-8.9h-1a15.9 15.9 0 0 1-4.75 11.37l-2.87 2.87-2.85-2.87a16.07 16.07 0 0 1-4.77-11.37h-1a17.12 17.12 0 0 0 2.57 8.9 16.79 16.79 0 0 0-8.93-2.56v1a15.91 15.91 0 0 1 11.38 4.76l2.86 2.86-2.91 2.94a16.14 16.14 0 0 1-11.38 4.76v1a17.06 17.06 0 0 0 8.92-2.57 17 17 0 0 0 0 18 17 17 0 0 0-9-2.58v1a16.16 16.16 0 0 1 11.38 4.75l2.86 2.86-2.78 2.78a16.07 16.07 0 0 1-11.38 4.77v1a17.06 17.06 0 0 0 8.92-2.57 16.79 16.79 0 0 0-2.56 8.93h1a15.88 15.88 0 0 1 4.77-11.38l2.85-2.86 2.87 2.86a16.16 16.16 0 0 1 4.75 11.38h1a17 17 0 0 0-2.57-8.92 17 17 0 0 0 8.9 2.55 17 17 0 0 0 9-2.56 16.87 16.87 0 0 0-2.55 8.93h1a15.91 15.91 0 0 1 4.76-11.38l2.86-2.86 2.86 2.86a16.11 16.11 0 0 1 4.81 11.38h1a17 17 0 0 0-2.57-8.92 16.88 16.88 0 0 0 8.93 2.56v-1a15.84 15.84 0 0 1-11.36-4.77l-2.87-2.86 2.87-2.86a15.86 15.86 0 0 1 11.37-4.75v-1a16.86 16.86 0 0 0-8.9 2.53 16.82 16.82 0 0 0 2.53-8.86 17 17 0 0 0-2.55-9 16.86 16.86 0 0 0 8.92 2.55v-1a15.87 15.87 0 0 1-11.37-4.75l-2.87-2.86 2.87-2.89a16.1 16.1 0 0 1 11.33-4.76zm-41.41 4.76a16 16 0 0 1 22.79 0l2.86 2.86-2.78 2.89a16.07 16.07 0 0 1-11.44 4.75 15.87 15.87 0 0 1-11.39-4.75l-2.86-2.86zm20.36 8.92a16.9 16.9 0 0 0-2.55 8.88 17.12 17.12 0 0 0 2.57 9 17 17 0 0 0-9-2.57 16.94 16.94 0 0 0-8.89 2.55 17 17 0 0 0 0-17.89 16.82 16.82 0 0 0 8.86 2.53 17.06 17.06 0 0 0 9-2.5zm-26.83 20.37a16.09 16.09 0 0 1-.08-22.75l.08-.08 2.86-2.86 2.87 2.86a15.92 15.92 0 0 1 4.75 11.35 16.12 16.12 0 0 1-4.75 11.48l-2.87 2.86zm29.3 6.47a16.11 16.11 0 0 1-11.44 4.75 15.92 15.92 0 0 1-11.35-4.76l-2.86-2.87 2.86-2.86a15.91 15.91 0 0 1 11.34-4.75 16.11 16.11 0 0 1 11.44 4.75l2.86 2.86zm6.46-29.3a16 16 0 0 1 .08 22.83l-2.86 2.86-2.86-2.86a16.07 16.07 0 0 1 0-22.83l2.86-2.86zm12.12-71.23v-1a17.12 17.12 0 0 0-8.88 2.52 16.44 16.44 0 0 0 2.3-6h-1a15.93 15.93 0 0 1-4.49 8.5l-2.86 2.86-2.86-2.86a16.19 16.19 0 0 1-4.5-8.5h-1a17.17 17.17 0 0 0 2.31 6.07 17 17 0 0 0-9-2.58 16.89 16.89 0 0 0-8.92 2.51 16.55 16.55 0 0 0 2.28-6h-1a15.91 15.91 0 0 1-4.48 8.5l-2.87 2.86-2.85-2.86a16.21 16.21 0 0 1-4.47-8.5h-1a17.2 17.2 0 0 0 2.3 6 16.79 16.79 0 0 0-8.93-2.56v1a15.88 15.88 0 0 1 11.38 4.77l2.86 2.85-2.9 2.94a16.17 16.17 0 0 1-11.38 4.75v1a17 17 0 0 0 8.92-2.57 17 17 0 0 0 0 18 17.2 17.2 0 0 0-9-2.58v1a16.12 16.12 0 0 1 11.38 4.76l2.86 2.86-2.78 2.78a16.11 16.11 0 0 1-11.38 4.76v1a17 17 0 0 0 8.92-2.57 16.79 16.79 0 0 0-2.56 8.93h1a15.88 15.88 0 0 1 4.77-11.38l2.85-2.86 2.87 2.86a16.17 16.17 0 0 1 4.75 11.38h1a17 17 0 0 0-2.57-8.92 16.87 16.87 0 0 0 8.9 2.56 17 17 0 0 0 9-2.56 16.86 16.86 0 0 0-2.55 8.92h1a15.87 15.87 0 0 1 4.76-11.37l2.86-2.87 2.86 2.87a16.1 16.1 0 0 1 4.81 11.37h1a17 17 0 0 0-2.57-8.92 16.79 16.79 0 0 0 8.93 2.56v-1a15.87 15.87 0 0 1-11.36-4.76l-2.87-2.86 2.87-2.87a15.9 15.9 0 0 1 11.37-4.75v-1a16.87 16.87 0 0 0-8.9 2.54 16.83 16.83 0 0 0 2.53-8.87 17 17 0 0 0-2.55-9 16.86 16.86 0 0 0 8.92 2.55v-1a15.9 15.9 0 0 1-11.37-4.74l-2.87-2.86 2.87-2.89a16.07 16.07 0 0 1 11.33-4.77zm-41.41 4.76a15.92 15.92 0 0 1 11.35-4.75 16.11 16.11 0 0 1 11.44 4.75l2.86 2.87-2.78 2.89a16.11 16.11 0 0 1-11.44 4.75 15.91 15.91 0 0 1-11.39-4.75l-2.86-2.86zm20.36 8.93a16.88 16.88 0 0 0-2.51 8.83 17.11 17.11 0 0 0 2.57 9 17 17 0 0 0-9-2.57 16.94 16.94 0 0 0-8.94 2.57 17 17 0 0 0 0-17.88 16.91 16.91 0 0 0 8.86 2.53 17.06 17.06 0 0 0 9-2.46zm-26.79 20.37a16.12 16.12 0 0 1-4.75-11.48 15.92 15.92 0 0 1 4.75-11.35l2.86-2.86 2.87 2.86a15.91 15.91 0 0 1 4.75 11.29 16.13 16.13 0 0 1-4.75 11.49l-2.87 2.86zm29.3 6.46a16.07 16.07 0 0 1-22.83 0l-2.86-2.86 2.86-2.87a16 16 0 0 1 11.34-4.75 16.11 16.11 0 0 1 11.44 4.75l2.86 2.87zm6.46-29.29a16.09 16.09 0 0 1 .08 22.75l-.08.08-2.86 2.86-2.86-2.86a16.09 16.09 0 0 1-4.76-11.54 15.92 15.92 0 0 1 4.76-11.34l2.86-2.86zm49.53 221.43h-1a17 17 0 0 0 .26 2.86h1a15.15 15.15 0 0 1-.26-2.86zm-14.8 0a15.93 15.93 0 0 1-.27 2.86h1a17 17 0 0 0 .26-2.86h-1zm-15.24 0h-1a16 16 0 0 0 .3 2.86h1a15.07 15.07 0 0 1-.3-2.86zm45.28 0a15.93 15.93 0 0 1-.27 2.86h1a17 17 0 0 0 .26-2.86h-1zm-6.88-45l2.86-2.86a16.11 16.11 0 0 1 11.38-4.76v-1a17 17 0 0 0-8.91 2.57 16.91 16.91 0 0 0 2.56-8.93h-1a15.84 15.84 0 0 1-4.77 11.37l-2.86 2.87-2.86-2.87a16.14 16.14 0 0 1-4.75-11.38h-1a17 17 0 0 0 2.58 8.94 17.12 17.12 0 0 0-17.93-.09 16.9 16.9 0 0 0 2.54-8.9h-1a15.9 15.9 0 0 1-4.76 11.37l-2.86 2.87-2.86-2.87a16.11 16.11 0 0 1-4.76-11.38h-1a17 17 0 0 0 2.57 8.91 16.9 16.9 0 0 0-8.93-2.55v1a15.87 15.87 0 0 1 11.37 4.76l2.87 2.86-2.87 2.93a16.11 16.11 0 0 1-11.38 4.76v1a17.12 17.12 0 0 0 8.92-2.57 16.87 16.87 0 0 0-2.56 8.9 17.07 17.07 0 0 0 2.58 9 17 17 0 0 0-8.94-2.58v1a16.1 16.1 0 0 1 11.38 4.75l2.87 2.86-2.87 2.88a16.12 16.12 0 0 1-11.38 4.77v1a17 17 0 0 0 8.91-2.57 16.87 16.87 0 0 0-2.55 8.93h1a15.87 15.87 0 0 1 4.76-11.38l2.86-2.86 2.86 2.86a16.11 16.11 0 0 1 4.76 11.38h1a17.12 17.12 0 0 0-2.57-8.92 16.92 16.92 0 0 0 17.9 0 16.87 16.87 0 0 0-2.55 8.93h1a15.9 15.9 0 0 1 4.75-11.38l2.86-2.86 2.86 2.86a16.07 16.07 0 0 1 4.82 11.38h1a17.05 17.05 0 0 0-2.57-8.91 16.88 16.88 0 0 0 8.93 2.56v-1a15.88 15.88 0 0 1-11.36-4.79l-2.86-2.86 2.86-2.86a15.9 15.9 0 0 1 11.38-4.75v-1a16.9 16.9 0 0 0-8.91 2.53 17 17 0 0 0 0-17.89 16.79 16.79 0 0 0 8.93 2.56v-1a15.91 15.91 0 0 1-11.4-4.73zm-27.17-2.87a15.91 15.91 0 0 1 11.34-4.75 16.08 16.08 0 0 1 11.44 4.76l2.86 2.86-2.82 2.86a16.07 16.07 0 0 1-11.44 4.75 15.89 15.89 0 0 1-11.39-4.75l-2.86-2.86zm20.36 8.93a17 17 0 0 0 0 17.93 17 17 0 0 0-9-2.57 17 17 0 0 0-8.88 2.54 17 17 0 0 0 2.55-9 16.82 16.82 0 0 0-2.53-8.86 16.84 16.84 0 0 0 8.86 2.53 17.1 17.1 0 0 0 9-2.59zm-26.83 20.37a16.07 16.07 0 0 1-.1-22.73l.1-.1 2.86-2.86 2.87 2.86a16.1 16.1 0 0 1 .06 22.77l-.06.06-2.86 2.86zm29.29 6.43a16.09 16.09 0 0 1-22.83 0l-2.86-2.87 2.86-2.86a16 16 0 0 1 22.79 0l2.86 2.86zm11.25-17.8a15.93 15.93 0 0 1-4.75 11.35l-2.87 2.86-2.86-2.86a16.09 16.09 0 0 1 0-22.83l2.86-2.86 2.87 2.86a16.12 16.12 0 0 1 4.75 11.48zm-6.87-75.09l2.86-2.85a16.07 16.07 0 0 1 11.38-4.77v-1a17.05 17.05 0 0 0-8.91 2.57 16.88 16.88 0 0 0 2.56-8.93h-1a15.88 15.88 0 0 1-4.77 11.38l-2.86 2.86-2.86-2.86a16.17 16.17 0 0 1-4.75-11.38h-1a17 17 0 0 0 2.58 8.95 17 17 0 0 0-9-2.58 16.83 16.83 0 0 0-9 2.5 16.91 16.91 0 0 0 2.54-8.91h-1a15.91 15.91 0 0 1-4.76 11.38l-2.86 2.86-2.86-2.86a16.12 16.12 0 0 1-4.76-11.38h-1a17 17 0 0 0 2.57 8.92 16.82 16.82 0 0 0-8.93-2.56v1a15.84 15.84 0 0 1 11.37 4.77l2.87 2.85-2.83 2.93a16.14 16.14 0 0 1-11.38 4.75v1a17 17 0 0 0 8.92-2.57 17 17 0 0 0 0 18 17.17 17.17 0 0 0-8.94-2.58v1a16.11 16.11 0 0 1 11.38 4.76l2.87 2.86-2.85 2.78a16.11 16.11 0 0 1-11.38 4.76v1a17 17 0 0 0 8.91-2.57 16.87 16.87 0 0 0-2.55 8.93h1a15.91 15.91 0 0 1 4.76-11.38l2.86-2.86 2.86 2.86a16.14 16.14 0 0 1 4.76 11.38h1a17.09 17.09 0 0 0-2.57-8.92 16.77 16.77 0 0 0 8.9 2.55 17.07 17.07 0 0 0 9-2.55 16.86 16.86 0 0 0-2.55 8.92h1a15.86 15.86 0 0 1 4.75-11.37l2.86-2.87 2.86 2.87a16.07 16.07 0 0 1 4.82 11.38h1a17.09 17.09 0 0 0-2.57-8.92 16.79 16.79 0 0 0 8.93 2.56v-1a15.91 15.91 0 0 1-11.36-4.77l-2.86-2.86 2.86-2.87a15.94 15.94 0 0 1 11.38-4.75v-1a16.91 16.91 0 0 0-8.91 2.54 17 17 0 0 0 0-17.89 16.87 16.87 0 0 0 8.93 2.55v-1a15.94 15.94 0 0 1-11.4-4.72zm0-60l2.87-2.86a16.11 16.11 0 0 1 11.38-4.76v-1a17 17 0 0 0-8.91 2.57 16.88 16.88 0 0 0 2.53-8.93h-1a15.84 15.84 0 0 1-4.77 11.37l-2.86 2.87-2.86-2.87a16.13 16.13 0 0 1-4.75-11.37h-1a17 17 0 0 0 2.58 8.94 17.08 17.08 0 0 0-17.94-.07 16.9 16.9 0 0 0 2.54-8.9h-1a15.87 15.87 0 0 1-4.76 11.37l-2.86 2.87-2.86-2.87a16.1 16.1 0 0 1-4.76-11.37h-1a17 17 0 0 0 2.57 8.9 16.9 16.9 0 0 0-8.93-2.55v1a15.87 15.87 0 0 1 11.37 4.76l2.87 2.86-2.87 2.93a16.11 16.11 0 0 1-11.38 4.76v1a17.12 17.12 0 0 0 8.92-2.57 17 17 0 0 0 0 18 17 17 0 0 0-8.94-2.58v1a16.14 16.14 0 0 1 11.38 4.75l2.87 2.86-2.85 2.78a16.07 16.07 0 0 1-11.38 4.77v1a17.05 17.05 0 0 0 8.91-2.57 16.87 16.87 0 0 0-2.55 8.93h1a15.91 15.91 0 0 1 4.76-11.38l2.86-2.86 2.86 2.86a16.12 16.12 0 0 1 4.76 11.38h1a17.06 17.06 0 0 0-2.57-8.92 17 17 0 0 0 17.9 0 16.87 16.87 0 0 0-2.55 8.93h1a15.9 15.9 0 0 1 4.75-11.38l2.86-2.86 2.86 2.86a16.07 16.07 0 0 1 4.82 11.37h1a17.06 17.06 0 0 0-2.57-8.92 16.88 16.88 0 0 0 8.93 2.56v-1a15.84 15.84 0 0 1-11.36-4.77l-2.86-2.86 2.86-2.86a15.9 15.9 0 0 1 11.38-4.75v-1a16.9 16.9 0 0 0-8.91 2.53 16.83 16.83 0 0 0 2.53-8.86 17 17 0 0 0-2.56-9 16.87 16.87 0 0 0 8.93 2.55v-1a15.91 15.91 0 0 1-11.37-4.75zm-27.13-2.86a16 16 0 0 1 22.78 0l2.86 2.86-2.89 2.89a16.07 16.07 0 0 1-11.44 4.75 15.89 15.89 0 0 1-11.39-4.75l-2.86-2.86zm20.36 8.92a17 17 0 0 0 0 17.92 16.7 16.7 0 0 0-9-2.56 16.9 16.9 0 0 0-8.88 2.55 17.06 17.06 0 0 0 2.55-9 16.82 16.82 0 0 0-2.53-8.86 16.84 16.84 0 0 0 8.86 2.53 17.1 17.1 0 0 0 8.92-2.58zm-26.83 20.37a16.07 16.07 0 0 1-.1-22.73l.1-.1 2.86-2.86 2.87 2.86a16.1 16.1 0 0 1 .06 22.77l-.06.06-2.86 2.86zm29.22 6.46a16.09 16.09 0 0 1-22.83 0l-2.86-2.87 2.86-2.86a15.93 15.93 0 0 1 11.35-4.75 16.11 16.11 0 0 1 11.44 4.75l2.86 2.86zm11.25-17.81a15.92 15.92 0 0 1-4.75 11.35l-2.87 2.86-2.86-2.86a16.09 16.09 0 0 1 0-22.83l2.86-2.86 2.87 2.86a16.12 16.12 0 0 1 4.75 11.48zm-6.9-75.09l2.9-2.85a16.07 16.07 0 0 1 11.38-4.77v-1a17 17 0 0 0-9 2.52 16.8 16.8 0 0 0 2.3-6h-1a15.88 15.88 0 0 1-4.5 8.5l-2.86 2.86-2.82-2.86a16.18 16.18 0 0 1-4.5-8.5h-1a17 17 0 0 0 2.31 6.07 17 17 0 0 0-17.91-.07 16.8 16.8 0 0 0 2.28-6h-1a15.93 15.93 0 0 1-4.49 8.5l-2.86 2.86-2.86-2.86a16.12 16.12 0 0 1-4.47-8.5h-1a16.82 16.82 0 0 0 2.3 6 16.82 16.82 0 0 0-8.93-2.56v1a15.84 15.84 0 0 1 11.37 4.77l2.87 2.85-2.9 2.94a16.14 16.14 0 0 1-11.38 4.75v1a17 17 0 0 0 8.92-2.57 17 17 0 0 0 0 18 17.17 17.17 0 0 0-8.94-2.58v1a16.11 16.11 0 0 1 11.38 4.76l2.87 2.86-2.85 2.78a16.11 16.11 0 0 1-11.38 4.76v1a17 17 0 0 0 8.91-2.57 16.87 16.87 0 0 0-2.55 8.93h1a15.91 15.91 0 0 1 4.76-11.38l2.86-2.86 2.86 2.86a16.14 16.14 0 0 1 4.76 11.38h1a17.12 17.12 0 0 0-2.57-8.92 16.87 16.87 0 0 0 8.9 2.56 17.08 17.08 0 0 0 9-2.56 16.86 16.86 0 0 0-2.55 8.92h1a15.86 15.86 0 0 1 4.75-11.37l2.86-2.87 2.86 2.87a16.07 16.07 0 0 1 4.82 11.37h1a17.12 17.12 0 0 0-2.57-8.92 16.79 16.79 0 0 0 8.93 2.56v-1a15.87 15.87 0 0 1-11.36-4.76l-2.86-2.86 2.86-2.87a15.94 15.94 0 0 1 11.38-4.75v-1a16.91 16.91 0 0 0-8.91 2.54 17 17 0 0 0 0-17.89 16.87 16.87 0 0 0 8.93 2.55v-1a15.94 15.94 0 0 1-11.4-4.72zm-27.17-2.86a15.91 15.91 0 0 1 11.34-4.75 16.11 16.11 0 0 1 11.44 4.75l2.86 2.87-2.82 2.89a16.11 16.11 0 0 1-11.44 4.75 15.93 15.93 0 0 1-11.39-4.75l-2.86-2.87zm20.35 8.93a17 17 0 0 0 0 17.92 17 17 0 0 0-17.92 0 17 17 0 0 0 2.55-9 16.82 16.82 0 0 0-2.53-8.86 16.93 16.93 0 0 0 8.86 2.53 17 17 0 0 0 9-2.59zm-26.82 20.37a16.09 16.09 0 0 1-4.76-11.48 15.89 15.89 0 0 1 4.76-11.35l2.86-2.86 2.87 2.86a16.1 16.1 0 0 1 .06 22.77l-.06.06-2.86 2.86zm29.29 6.46a16.07 16.07 0 0 1-22.83 0l-2.86-2.86 2.86-2.87a16 16 0 0 1 22.79 0l2.86 2.87zm11.25-17.81a16 16 0 0 1-4.75 11.35l-2.87 2.86-2.86-2.86a16.08 16.08 0 0 1-4.78-11.54 15.91 15.91 0 0 1 4.75-11.34l2.86-2.86 2.87 2.86a16.1 16.1 0 0 1 4.78 11.53zm30 210a15.93 15.93 0 0 1-.27 2.86h1a17 17 0 0 0 .26-2.86h-1zm-15.24 0h-1a18.11 18.11 0 0 0 .24 2.81h1a16.91 16.91 0 0 1-.3-2.86h.06zm19.24-52.34v-1a16.73 16.73 0 0 0-5.6 2.21 16.81 16.81 0 0 0 2.54-8.9h-1a15.93 15.93 0 0 1-4.75 11.37l-2.87 2.87-2.86-2.87a16.11 16.11 0 0 1-4.76-11.38h-1a17 17 0 0 0 2.57 8.91 16.87 16.87 0 0 0-8.93-2.55v1a15.91 15.91 0 0 1 11.38 4.76l2.86 2.86-2.86 2.87a16.14 16.14 0 0 1-11.38 4.76v1a17.06 17.06 0 0 0 8.92-2.57 17 17 0 0 0 0 18 17 17 0 0 0-9-2.58v1a16.13 16.13 0 0 1 11.38 4.75l2.86 2.86-2.78 2.78a16.12 16.12 0 0 1-11.38 4.77v1a17.15 17.15 0 0 0 8.92-2.57 16.79 16.79 0 0 0-2.56 8.93h1a15.84 15.84 0 0 1 4.77-11.38l2.85-2.86 2.87 2.86a16.16 16.16 0 0 1 4.75 11.38h1a17 17 0 0 0-2.57-8.92 16.64 16.64 0 0 0 5.63 2.23v-1a15.86 15.86 0 0 1-8.07-4.4l-2.86-2.87 2.86-2.86a16 16 0 0 1 8.07-4.41v-1a17 17 0 0 0-5.62 2.22 17 17 0 0 0 0-17.88 16.81 16.81 0 0 0 5.59 2.21v-1a15.88 15.88 0 0 1-8.07-4.45l-2.9-2.82 2.86-2.87a15.94 15.94 0 0 1 8.1-4.46zm-8.81 10.87a15.92 15.92 0 0 1 4.75 11.35 16.12 16.12 0 0 1-4.75 11.48l-2.87 2.86-2.86-2.86a16.09 16.09 0 0 1-.08-22.75l.08-.08 2.86-2.86zm-59.19-66.47a15.91 15.91 0 0 1 11.34-4.75 16.11 16.11 0 0 1 11.44 4.75l2.86 2.86-2.89 2.89a16.11 16.11 0 0 1-11.44 4.75 15.93 15.93 0 0 1-11.39-4.75l-2.86-2.87zm20.36 8.92a17 17 0 0 0 0 17.93 17.07 17.07 0 0 0-9-2.57 16.9 16.9 0 0 0-8.88 2.55 17 17 0 0 0 2.55-9 16.82 16.82 0 0 0-2.53-8.86 16.93 16.93 0 0 0 8.86 2.53 17 17 0 0 0 9-2.58zm-26.83 20.38a16.09 16.09 0 0 1-4.76-11.49 15.88 15.88 0 0 1 4.76-11.34l2.86-2.86 2.87 2.86a16.1 16.1 0 0 1 .06 22.77l-.06.06-2.86 2.86zm29.22 6.45a16.07 16.07 0 0 1-11.44 4.75 15.91 15.91 0 0 1-11.39-4.75l-2.86-2.86 2.86-2.87a16 16 0 0 1 22.79 0l2.86 2.87zm11.25-17.8a16 16 0 0 1-4.75 11.35l-2.87 2.86-2.86-2.86a16.08 16.08 0 0 1-4.75-11.49 15.91 15.91 0 0 1 4.75-11.34l2.86-2.86 2.87 2.86a16.1 16.1 0 0 1 4.75 11.48zm34-22.36v-1a16.75 16.75 0 0 0-5.6 2.22 16.82 16.82 0 0 0 2.54-8.91h-1a15.94 15.94 0 0 1-4.75 11.38l-2.87 2.86-2.86-2.86a16.11 16.11 0 0 1-4.76-11.38h-1a17.09 17.09 0 0 0 2.57 8.92 16.79 16.79 0 0 0-8.93-2.56v1a15.88 15.88 0 0 1 11.38 4.77l2.86 2.85-2.86 2.87a16.17 16.17 0 0 1-11.38 4.75v1a17 17 0 0 0 8.92-2.57 17 17 0 0 0 0 18 17.2 17.2 0 0 0-9-2.58v1a16.14 16.14 0 0 1 11.38 4.76l2.86 2.86-2.78 2.78a16.11 16.11 0 0 1-11.38 4.76v1a17 17 0 0 0 8.92-2.57 16.79 16.79 0 0 0-2.56 8.93h1a15.88 15.88 0 0 1 4.77-11.38l2.85-2.86 2.87 2.86a16.17 16.17 0 0 1 4.75 11.38h1a17 17 0 0 0-2.57-8.92 16.84 16.84 0 0 0 5.63 2.23v-1a16 16 0 0 1-8.07-4.41l-2.86-2.86 2.86-2.87a15.94 15.94 0 0 1 8.07-4.4v-1a16.77 16.77 0 0 0-5.62 2.22 17 17 0 0 0 0-17.88 16.79 16.79 0 0 0 5.59 2.2v-1a15.86 15.86 0 0 1-8.07-4.4l-2.9-2.87 2.86-2.86a16 16 0 0 1 8.1-4.46zm-8.81 10.88a15.91 15.91 0 0 1 4.75 11.34 16.13 16.13 0 0 1-4.75 11.49l-2.87 2.86-2.86-2.86a16.13 16.13 0 0 1-4.75-11.49 15.91 15.91 0 0 1 4.75-11.34l2.86-2.86zm8.81-70.88v-1a16.94 16.94 0 0 0-5.6 2.21 16.78 16.78 0 0 0 2.54-8.9h-1a15.9 15.9 0 0 1-4.75 11.37l-2.87 2.87-2.86-2.87a16.1 16.1 0 0 1-4.76-11.37h-1a17.05 17.05 0 0 0 2.57 8.85 16.87 16.87 0 0 0-8.93-2.55v1a15.91 15.91 0 0 1 11.38 4.76l2.86 2.86-2.86 2.93a16.14 16.14 0 0 1-11.38 4.76v1a17.06 17.06 0 0 0 8.92-2.57 17 17 0 0 0 0 18 17 17 0 0 0-9-2.58v1a16.17 16.17 0 0 1 11.38 4.75l2.86 2.86-2.78 2.78a16.09 16.09 0 0 1-11.38 4.77v1a17.06 17.06 0 0 0 8.92-2.57 16.79 16.79 0 0 0-2.56 8.93h1a15.88 15.88 0 0 1 4.77-11.38l2.85-2.86 2.87 2.86a16.16 16.16 0 0 1 4.75 11.38h1a17 17 0 0 0-2.57-8.92 17.06 17.06 0 0 0 5.63 2.23v-1a15.86 15.86 0 0 1-8.07-4.4l-2.86-2.87 2.86-2.86a15.86 15.86 0 0 1 8.07-4.4v-1a17.2 17.2 0 0 0-5.62 2.22 17 17 0 0 0 0-17.88 16.81 16.81 0 0 0 5.59 2.21v-1a15.88 15.88 0 0 1-8.07-4.41l-2.9-2.86 2.86-2.86a15.88 15.88 0 0 1 8.1-4.49zm-8.81 10.87a15.92 15.92 0 0 1 4.75 11.35 16.12 16.12 0 0 1-4.75 11.48l-2.87 2.86-2.86-2.86a16.09 16.09 0 0 1-.08-22.75l.08-.08 2.86-2.86zm8.81-70.87v-1a16.75 16.75 0 0 0-5.6 2.22 16.73 16.73 0 0 0 2.28-6h-1a15.91 15.91 0 0 1-4.48 8.5l-2.87 2.86-2.86-2.86a16.19 16.19 0 0 1-4.47-8.56h-1a17.2 17.2 0 0 0 2.3 6 16.79 16.79 0 0 0-8.93-2.56v1a15.88 15.88 0 0 1 11.38 4.77l2.86 2.85-2.89 2.94a16.17 16.17 0 0 1-11.38 4.75v1a17 17 0 0 0 8.92-2.57 17 17 0 0 0 0 18 17.2 17.2 0 0 0-9-2.58v1a16.14 16.14 0 0 1 11.38 4.76l2.86 2.86-2.78 2.78a16.12 16.12 0 0 1-11.38 4.76v1a17 17 0 0 0 8.92-2.57 16.79 16.79 0 0 0-2.56 8.93h1a15.88 15.88 0 0 1 4.77-11.38l2.85-2.86 2.87 2.86a16.17 16.17 0 0 1 4.75 11.38h1a17 17 0 0 0-2.57-8.92 16.64 16.64 0 0 0 5.63 2.23v-1a15.88 15.88 0 0 1-8.07-4.43l-2.86-2.86 2.86-2.87a15.94 15.94 0 0 1 8.07-4.4v-1a16.77 16.77 0 0 0-5.62 2.22 17 17 0 0 0 0-17.88 16.81 16.81 0 0 0 5.62 2.19v-1a15.86 15.86 0 0 1-8.07-4.4l-2.86-2.86 2.86-2.87a15.86 15.86 0 0 1 8.07-4.43zm-8.81 10.87a15.91 15.91 0 0 1 4.75 11.29 16.13 16.13 0 0 1-4.75 11.49l-2.87 2.86-2.86-2.86a16.12 16.12 0 0 1-4.75-11.49 15.92 15.92 0 0 1 4.75-11.35l2.86-2.86z"/></svg>